<svg xmlns="http://www.w3.org/2000/svg" id="Layer_1" data-name="Layer 1" viewBox="0 0 85 85"><defs><style>.cls-1{fill:none}.cls-2{fill:#e6e6e6}.cls-3{stroke:#1a1a1a;stroke-miterlimit:10;stroke-width:.7px}</style></defs><rect width="84.89" height="85.06" x=".68" y="-.19" class="cls-1"/><circle cx="43.19" cy="42.22" r="34.09" class="cls-2"/><path d="M29.15,38.33l-.61,1.76H27.26l2.39-6.91h1.62l2.49,6.91H32.39l-.64-1.76Zm2.31-1.07c-.55-1.58-.88-2.52-1-3.11h0c-.17.65-.53,1.76-1,3.11Z" class="cls-3"/><path d="M39.23,32.79v5.88c0,.47,0,.95,0,1.42H38a5.8,5.8,0,0,1-.06-.6,1.56,1.56,0,0,1-1.51.72c-1.3,0-2.13-1.05-2.13-2.64s.88-2.73,2.33-2.73c.79,0,1.19.29,1.31.54V32.79Zm-3.61,4.75c0,1.08.46,1.67,1.19,1.67,1.06,0,1.22-.84,1.22-1.71s-.16-1.65-1.17-1.65C36.06,35.85,35.62,36.47,35.62,37.54Z" class="cls-3"/><path d="M45.33,37.52a2.45,2.45,0,0,1-2.51,2.69,2.42,2.42,0,0,1-2.47-2.67,2.46,2.46,0,0,1,2.53-2.7A2.42,2.42,0,0,1,45.33,37.52Zm-3.72,0c0,1,.47,1.7,1.24,1.7s1.21-.65,1.21-1.7-.44-1.7-1.23-1.7S41.61,36.41,41.61,37.53Z" class="cls-3"/><path d="M46.47,32.79h1.24v2.78a1.63,1.63,0,0,1,1.53-.73c1.36,0,2.1,1.12,2.1,2.59s-.77,2.78-2.24,2.78a1.41,1.41,0,0,1-1.4-.67,3.84,3.84,0,0,1-.05.55H46.46c0-.56,0-1.13,0-1.69Zm3.6,4.66c0-.94-.38-1.6-1.19-1.6s-1.22.59-1.22,1.7c0,.93.28,1.66,1.2,1.66S50.07,38.52,50.07,37.45Z" class="cls-3"/><path d="M53.47,37.78c0,.78.39,1.45,1.16,1.45a.94.94,0,0,0,1-.63h1.24a2.18,2.18,0,0,1-2.29,1.61,2.35,2.35,0,0,1-2.37-2.62c0-1.58.81-2.75,2.43-2.75A2.24,2.24,0,0,1,57,37.35a2.89,2.89,0,0,1,0,.43ZM55.71,37c0-.68-.31-1.24-1.07-1.24s-1.07.52-1.14,1.24Z" class="cls-3"/><path d="M21.77,45.18v6.91H20.48V45.18Z" class="cls-3"/><path d="M23.32,52.09v-7.3h1.25v7.3Z" class="cls-3"/><path d="M26,52.09v-7.3h1.25v7.3Z" class="cls-3"/><path d="M33.11,50.6c0,.5,0,1.09,0,1.49H31.91c0-.13,0-.42,0-.65a1.47,1.47,0,0,1-1.46.77c-1,0-1.71-.56-1.71-1.9V47h1.24v3.1c0,.61.19,1.13.88,1.13s1.05-.41,1.05-1.52V47h1.24Z" class="cls-3"/><path d="M35.35,50.58a1,1,0,0,0,1.06.72c.61,0,.83-.24.83-.6s-.22-.54-1-.74c-1.61-.39-1.89-.89-1.89-1.6s.53-1.52,2-1.52,2,.82,2.06,1.52H37.19c0-.23-.22-.63-.93-.63-.55,0-.73.26-.73.52s.18.45,1,.65c1.66.39,1.93,1,1.93,1.71s-.67,1.6-2.14,1.6-2.13-.72-2.25-1.63Z" class="cls-3"/><path d="M39,47h.82V45.52h1.25V47h1.05v.95H41.08v2.7c0,.42.12.61.55.61a1.63,1.63,0,0,0,.37,0v.88a3,3,0,0,1-.89.1c-.94,0-1.28-.5-1.28-1.38V47.91H39Z" class="cls-3"/><path d="M43.08,48.35c0-.58,0-1,0-1.39h1.22c0,.12,0,.6,0,.95A1.7,1.7,0,0,1,46,46.84V48c-1,0-1.67.36-1.67,1.73v2.32H43.08Z" class="cls-3"/><path d="M50.93,50.84A10.1,10.1,0,0,0,51,52.09H49.81a2.39,2.39,0,0,1-.08-.55,1.54,1.54,0,0,1-1.49.67,1.57,1.57,0,0,1-1.75-1.59c0-1.16.93-1.7,2.44-1.7h.78v-.36c0-.39-.13-.81-.89-.81s-.83.31-.9.69H46.73c.08-.84.6-1.61,2.13-1.6,1.34,0,2.07.53,2.07,1.74ZM49.72,49.7h-.67c-.91,0-1.31.27-1.31.84a.75.75,0,0,0,.83.77c1,0,1.15-.7,1.15-1.47Z" class="cls-3"/><path d="M51.76,47h.82V45.52h1.25V47h1.05v.95H53.83v2.7c0,.42.12.61.55.61a1.63,1.63,0,0,0,.37,0v.88a3,3,0,0,1-.89.1c-.94,0-1.28-.5-1.28-1.38V47.91h-.82Z" class="cls-3"/><path d="M60.46,49.52A2.5,2.5,0,1,1,58,46.84,2.42,2.42,0,0,1,60.46,49.52Zm-3.71,0c0,1,.47,1.7,1.23,1.7s1.22-.65,1.22-1.7-.44-1.7-1.24-1.7S56.75,48.41,56.75,49.53Z" class="cls-3"/><path d="M61.6,48.35c0-.58,0-1,0-1.39h1.22c0,.12,0,.6,0,.95a1.7,1.7,0,0,1,1.67-1.07V48c-1,0-1.67.36-1.67,1.73v2.32H61.6Z" class="cls-3"/></svg>