<svg id="Layer_1" data-name="Layer 1" xmlns="http://www.w3.org/2000/svg" viewBox="0 0 85 85"><defs><style>.cls-1{fill:none;}.cls-2{fill:#e6e6e6;}.cls-3{fill:#1a1a1a;stroke:#1a1a1a;stroke-linecap:round;stroke-linejoin:round;stroke-width:0.6px;}</style></defs><rect class="cls-1" x="-0.03" y="-0.19" width="84.89" height="85.06"/><circle class="cls-2" cx="42.49" cy="42.22" r="34.09"/><path class="cls-3" d="M29.23,37.4l-.61,1.76H27.34l2.39-6.91h1.62l2.49,6.91H32.47l-.64-1.76Zm2.31-1.07c-.55-1.58-.88-2.53-1-3.12h0c-.17.65-.53,1.77-1,3.12Z"/><path class="cls-3" d="M39.3,31.85v5.89c0,.47,0,.94,0,1.42H38.12c0-.15,0-.45-.06-.6a1.56,1.56,0,0,1-1.51.72c-1.31,0-2.13-1.05-2.13-2.64s.88-2.73,2.32-2.73c.8,0,1.2.29,1.32.54v-2.6Zm-3.6,4.76c0,1.08.46,1.66,1.19,1.66,1.06,0,1.22-.84,1.22-1.71s-.16-1.65-1.17-1.65C36.14,34.91,35.7,35.54,35.7,36.61Z"/><path class="cls-3" d="M45.41,36.58a2.46,2.46,0,0,1-2.51,2.7,2.43,2.43,0,0,1-2.47-2.67A2.46,2.46,0,0,1,43,33.91,2.42,2.42,0,0,1,45.41,36.58Zm-3.72,0c0,1,.47,1.7,1.24,1.7s1.21-.65,1.21-1.69-.44-1.71-1.23-1.71S41.69,35.48,41.69,36.59Z"/><path class="cls-3" d="M46.55,31.85h1.24v2.78a1.64,1.64,0,0,1,1.53-.72c1.36,0,2.1,1.12,2.1,2.59s-.77,2.78-2.24,2.78a1.41,1.41,0,0,1-1.4-.67,3.84,3.84,0,0,1-.05.55H46.54c0-.56,0-1.13,0-1.69Zm3.6,4.67c0-.94-.38-1.61-1.19-1.61s-1.23.6-1.23,1.71c0,.93.29,1.66,1.21,1.66S50.15,37.59,50.15,36.52Z"/><path class="cls-3" d="M53.55,36.85c0,.78.39,1.44,1.16,1.44a.93.93,0,0,0,1-.63H57a2.19,2.19,0,0,1-2.29,1.62,2.35,2.35,0,0,1-2.37-2.62c0-1.58.8-2.75,2.43-2.75A2.23,2.23,0,0,1,57,36.42c0,.17,0,.29,0,.43Zm2.24-.79c0-.68-.32-1.24-1.07-1.24s-1.07.52-1.14,1.24Z"/><path class="cls-3" d="M18,44.25h2.78a2.12,2.12,0,0,1,2.39,2.1c0,1.44-1.08,2.14-2.44,2.14H19.34v2.67H18Zm1.3,3.2h1.3c.77,0,1.26-.34,1.26-1.08s-.54-1.07-1.23-1.07H19.34Z"/><path class="cls-3" d="M25.52,43.85v2.83A1.65,1.65,0,0,1,27,45.91c.91,0,1.73.52,1.73,2v3.29H27.52v-3.1c0-.73-.28-1.13-.93-1.13-.83,0-1.07.59-1.07,1.48v2.75H24.27V43.85Z"/><path class="cls-3" d="M34.87,48.58a2.5,2.5,0,1,1-2.45-2.67A2.41,2.41,0,0,1,34.87,48.58Zm-3.71,0c0,1,.47,1.7,1.23,1.7s1.22-.65,1.22-1.69-.44-1.71-1.24-1.71S31.16,47.48,31.16,48.59Z"/><path class="cls-3" d="M35.44,46h.82V44.59h1.25V46h1.05v1H37.51v2.69c0,.43.12.62.55.62a2.51,2.51,0,0,0,.37,0v.87a2.68,2.68,0,0,1-.89.1c-.94,0-1.28-.49-1.28-1.38V47h-.82Z"/><path class="cls-3" d="M44.14,48.58a2.5,2.5,0,1,1-2.45-2.67A2.41,2.41,0,0,1,44.14,48.58Zm-3.71,0c0,1,.47,1.7,1.23,1.7s1.22-.65,1.22-1.69-.44-1.71-1.24-1.71S40.43,47.48,40.43,48.59Z"/><path class="cls-3" d="M46.17,49.64a1,1,0,0,0,1.07.73c.61,0,.83-.24.83-.6s-.22-.54-1-.74c-1.61-.4-1.89-.89-1.89-1.61s.53-1.51,2-1.51,2,.82,2.06,1.52H48c-.05-.24-.22-.63-.93-.63-.55,0-.73.25-.73.52s.18.44,1,.65c1.66.39,1.93,1,1.93,1.71s-.67,1.6-2.14,1.6-2.13-.72-2.25-1.64Z"/><path class="cls-3" d="M51.63,43.85v2.83a1.65,1.65,0,0,1,1.51-.77c.91,0,1.73.52,1.73,2v3.29H53.63v-3.1c0-.73-.28-1.13-.93-1.13-.83,0-1.07.59-1.07,1.48v2.75H50.38V43.85Z"/><path class="cls-3" d="M61,48.58a2.5,2.5,0,1,1-2.45-2.67A2.41,2.41,0,0,1,61,48.58Zm-3.71,0c0,1,.47,1.7,1.23,1.7s1.22-.65,1.22-1.69-.44-1.71-1.24-1.71S57.27,47.48,57.27,48.59Z"/><path class="cls-3" d="M63.36,50.65v2.5H62.12V47.27c0-.42,0-.84,0-1.25h1.21a6.64,6.64,0,0,1,0,.7,1.67,1.67,0,0,1,1.55-.81c1.17,0,2,1,2,2.55,0,1.82-1,2.82-2.24,2.82A1.47,1.47,0,0,1,63.36,50.65Zm2.34-2.14c0-1-.42-1.59-1.17-1.59s-1.22.57-1.22,1.67.29,1.69,1.16,1.69S65.7,49.63,65.7,48.51Z"/></svg>