<?xml version="1.0" encoding="utf-8"?>
<!-- Generator: Adobe Illustrator 24.1.1, SVG Export Plug-In . SVG Version: 6.00 Build 0)  -->
<svg version="1.1" id="Layer_1" xmlns="http://www.w3.org/2000/svg" xmlns:xlink="http://www.w3.org/1999/xlink" x="0px" y="0px"
	 viewBox="0 0 1440 1440" style="enable-background:new 0 0 1440 1440;" xml:space="preserve">
<style type="text/css">
	.st0{fill:none;stroke:#000000;stroke-width:100;stroke-miterlimit:10;}
	.st1{fill:#FFFFFF;stroke:#000000;stroke-width:100;stroke-miterlimit:10;}
	.st2{fill:none;stroke:#000000;stroke-width:50;stroke-miterlimit:10;}
</style>
<polyline class="st0" points="434.03,618.22 442.54,1055 303.24,952.71 "/>
<polyline class="st0" points="1162.11,1125.37 1304.62,1033.59 1150.19,984.62 "/>
<path class="st0" d="M591.41,950.55c-4.43,208.36,0.02-0.83-4.44,208.89"/>
<path class="st0" d="M619.45,1111.88c229.04,2.22,229.04,2.22,229.04,2.22V958.55"/>
<line class="st0" x1="870.57" y1="998.28" x2="1046.15" y2="1128.49"/>
<path class="st1" d="M1076.35,958.55"/>
<line class="st0" x1="1066.14" y1="958.55" x2="1066.14" y2="1167.44"/>
<circle class="st0" cx="599.64" cy="853.76" r="38.5"/>
<path class="st2" d="M472.15,499.7c-5.29,10.49-19.08,37.86-38.37,37.72c-21.29-0.16-35.43-33.73-39.97-44.5
	c-3.38-8.02-12.67-29.85-8.72-57.19c1.09-7.52,8.01-23.61,21.87-55.79c0,0,12.53-29.09,14.65-46.05c0.08-0.6,0.71-5.8,1.69-12.93
	c0.76-5.56,1.37-9.68,1.7-11.93c3.99-27.06,4.26-29.4,5.45-29.56c4.2-0.55,11.72,27,12.25,28.98c0.91,3.37,2.31,7.5,3.58,12.51
	c1.69,6.67,2.6,11.66,2.81,12.77c2.74,14.46,12.88,39.07,15.57,45.7c11.44,28.13,17.16,42.2,18.47,51.7
	C484.03,437.64,488.75,466.76,472.15,499.7z"/>
<polyline class="st0" points="275.26,751.31 127.23,797.16 242,888.26 "/>
</svg>
