<?xml version="1.0" encoding="utf-8"?>
<!-- Generator: Adobe Illustrator 24.1.1, SVG Export Plug-In . SVG Version: 6.00 Build 0)  -->
<svg version="1.1" id="Layer_1" xmlns="http://www.w3.org/2000/svg" xmlns:xlink="http://www.w3.org/1999/xlink" x="0px" y="0px"
	 viewBox="0 0 2880 1440" style="enable-background:new 0 0 2880 1440;" xml:space="preserve">
<style type="text/css">
	.st0{fill:none;stroke:#000000;stroke-width:100;stroke-miterlimit:10;}
	.st1{fill:#FFFFFF;stroke:#000000;stroke-width:100;stroke-miterlimit:10;}
	.st2{fill:none;stroke:#000000;stroke-width:50;stroke-miterlimit:10;}
</style>
<polyline class="st0" points="1154.62,568.56 1163.13,1005.33 1023.83,903.05 "/>
<polyline class="st0" points="1882.7,1082.82 2025.21,991.04 1870.78,942.07 "/>
<path class="st0" d="M1312,900.89c-4.43,208.36,0.02-0.83-4.44,208.89"/>
<path class="st0" d="M1340.04,1062.22c229.04,2.22,229.04,2.22,229.04,2.22V908.89"/>
<line class="st0" x1="1591.16" y1="948.62" x2="1766.74" y2="1078.83"/>
<path class="st1" d="M1766.74,1078.83"/>
<path class="st0" d="M1796.94,908.89"/>
<line class="st0" x1="1786.73" y1="908.89" x2="1786.73" y2="1117.78"/>
<circle class="st0" cx="1320.23" cy="804.09" r="38.5"/>
<path class="st2" d="M1192.74,450.04c-5.29,10.49-19.08,37.86-38.37,37.72c-21.29-0.16-35.43-33.73-39.97-44.5
	c-3.38-8.02-12.67-29.85-8.72-57.19c1.09-7.52,8.01-23.61,21.87-55.79c0,0,12.53-29.09,14.65-46.05c0.08-0.6,0.71-5.8,1.69-12.93
	c0.76-5.56,1.37-9.68,1.7-11.93c3.99-27.06,4.26-29.4,5.45-29.56c4.2-0.55,11.72,27,12.25,28.98c0.91,3.37,2.31,7.5,3.58,12.51
	c1.69,6.67,2.6,11.66,2.81,12.77c2.74,14.46,12.88,39.07,15.57,45.7c11.44,28.13,17.16,42.2,18.47,51.7
	C1204.62,387.98,1209.34,417.1,1192.74,450.04z"/>
<polyline class="st0" points="995.85,701.64 847.82,747.5 962.59,838.6 "/>
</svg>
