<svg xmlns="http://www.w3.org/2000/svg" id="Layer_1" data-name="Layer 1" viewBox="0 0 85 85"><defs><style>.cls-1{fill:none}.cls-2{fill:#e6e6e6}.cls-3{fill:#1a1a1a;stroke:#1a1a1a;stroke-linecap:round;stroke-linejoin:round}</style></defs><rect width="84.89" height="85.06" x=".03" y=".14" class="cls-1"/><circle cx="42.54" cy="42.54" r="34.09" class="cls-2"/><path d="M26.34,37.67v-9.8h3.11a3.69,3.69,0,0,1,2.25.62,2,2,0,0,1,.83,1.62,2.33,2.33,0,0,1-.47,1.45,2.61,2.61,0,0,1-1.31.88v0a2.57,2.57,0,0,1,1.62.75,2.29,2.29,0,0,1,.6,1.65,2.47,2.47,0,0,1-1,2,3.91,3.91,0,0,1-2.5.78ZM28,29.17V32H29a2,2,0,0,0,1.33-.4,1.38,1.38,0,0,0,.48-1.13q0-1.26-1.68-1.26Zm0,4.1v3.1h1.38A2.12,2.12,0,0,0,30.75,36a1.43,1.43,0,0,0,.49-1.16c0-1-.7-1.52-2.11-1.52Z" class="cls-3"/><path d="M40.12,37.67H38.58V36.58h0a2.32,2.32,0,0,1-2.13,1.26,2.26,2.26,0,0,1-1.62-.56,2,2,0,0,1-.58-1.49q0-2,2.28-2.31l2.08-.29c0-1-.47-1.5-1.42-1.5a3.42,3.42,0,0,0-2.26.86V31.16a5,5,0,0,1,2.56-.65,2.32,2.32,0,0,1,2.65,2.61Zm-1.53-3.44-1.47.21a2.4,2.4,0,0,0-1,.33,1,1,0,0,0-.34.85.93.93,0,0,0,.31.73,1.25,1.25,0,0,0,.86.28,1.58,1.58,0,0,0,1.2-.51,1.82,1.82,0,0,0,.47-1.28Z" class="cls-3"/><path d="M41.8,37.45V36a3.2,3.2,0,0,0,2,.68c.95,0,1.43-.28,1.43-.85a.65.65,0,0,0-.12-.4,1.07,1.07,0,0,0-.33-.3,2.1,2.1,0,0,0-.5-.23l-.63-.24a6.13,6.13,0,0,1-.77-.36,2.65,2.65,0,0,1-.58-.43,1.58,1.58,0,0,1-.34-.55,2,2,0,0,1-.12-.72,1.62,1.62,0,0,1,.24-.89,2,2,0,0,1,.64-.65,3.06,3.06,0,0,1,.92-.4,4.11,4.11,0,0,1,1.06-.13,4.9,4.9,0,0,1,1.73.29v1.39a2.88,2.88,0,0,0-1.69-.51,1.81,1.81,0,0,0-.54.07,1.23,1.23,0,0,0-.42.17.81.81,0,0,0-.26.26.57.57,0,0,0-.1.34.65.65,0,0,0,.1.38.83.83,0,0,0,.28.28,3.15,3.15,0,0,0,.45.22l.61.21a7.72,7.72,0,0,1,.81.38,2.87,2.87,0,0,1,.61.43,1.67,1.67,0,0,1,.39.56,2,2,0,0,1,.13.76,1.79,1.79,0,0,1-.24.93,2.05,2.05,0,0,1-.66.65,2.8,2.8,0,0,1-.95.39,5.07,5.07,0,0,1-1.13.13A4.71,4.71,0,0,1,41.8,37.45Z" class="cls-3"/><path d="M54.57,37.67H53V33.84c0-1.38-.47-2.07-1.39-2.07a1.45,1.45,0,0,0-1.18.6,2.38,2.38,0,0,0-.48,1.54v3.76H48.35V27.31h1.59v4.52h0a2.51,2.51,0,0,1,2.27-1.32c1.56,0,2.33.95,2.33,2.85Z" class="cls-3"/><path d="M24.51,54.08V52.41a2.84,2.84,0,0,0,.54.37,3.81,3.81,0,0,0,.66.27,4.23,4.23,0,0,0,.7.18,3.72,3.72,0,0,0,.64.06A2.84,2.84,0,0,0,28.58,53a1.14,1.14,0,0,0,.5-1,1.09,1.09,0,0,0-.17-.61,1.75,1.75,0,0,0-.47-.47,5,5,0,0,0-.7-.4l-.88-.41q-.49-.27-.93-.54a3.7,3.7,0,0,1-.74-.61,2.42,2.42,0,0,1-.5-.74,2.48,2.48,0,0,1-.18-1,2.23,2.23,0,0,1,.31-1.2,2.53,2.53,0,0,1,.82-.84,3.56,3.56,0,0,1,1.16-.49,5.31,5.31,0,0,1,1.32-.17,5.36,5.36,0,0,1,2.24.35v1.61a3.57,3.57,0,0,0-2.14-.6,3.51,3.51,0,0,0-.72.07,2.17,2.17,0,0,0-.65.22,1.4,1.4,0,0,0-.46.41,1,1,0,0,0-.18.59,1.15,1.15,0,0,0,.14.57,1.63,1.63,0,0,0,.4.44,4.16,4.16,0,0,0,.64.38l.88.41c.34.18.67.36,1,.56a4.72,4.72,0,0,1,.8.65,3,3,0,0,1,.55.79,2.4,2.4,0,0,1,.2,1A2.33,2.33,0,0,1,29.68,54a3.55,3.55,0,0,1-1.18.46,6.26,6.26,0,0,1-1.4.15c-.16,0-.36,0-.6,0s-.49-.06-.74-.11-.48-.11-.71-.18A2,2,0,0,1,24.51,54.08Z" class="cls-3"/><path d="M37.54,54.15a3.94,3.94,0,0,1-2,.49,3.37,3.37,0,0,1-2.51-1,3.44,3.44,0,0,1-1-2.52,3.77,3.77,0,0,1,1-2.78,3.68,3.68,0,0,1,2.75-1,4.08,4.08,0,0,1,1.69.33v1.48A2.54,2.54,0,0,0,36,48.57a2.19,2.19,0,0,0-1.65.68A2.54,2.54,0,0,0,33.7,51a2.35,2.35,0,0,0,.61,1.72,2.13,2.13,0,0,0,1.62.63,2.55,2.55,0,0,0,1.61-.61Z" class="cls-3"/><path d="M43.31,49a1.32,1.32,0,0,0-.83-.22,1.4,1.4,0,0,0-1.17.63,2.82,2.82,0,0,0-.47,1.73v3.35H39.25v-7h1.59v1.44h0a2.52,2.52,0,0,1,.72-1.15,1.63,1.63,0,0,1,1.07-.41,1.31,1.31,0,0,1,.66.13Z" class="cls-3"/><path d="M45.38,46a.92.92,0,0,1-.66-.25.81.81,0,0,1-.28-.64.83.83,0,0,1,.28-.65.89.89,0,0,1,.66-.26,1,1,0,0,1,.69.26.87.87,0,0,1,0,1.28A1,1,0,0,1,45.38,46Zm.79,8.47H44.58v-7h1.59Z" class="cls-3"/><path d="M49.89,53.44h0v4.25H48.27V47.47h1.59V48.7h0a2.59,2.59,0,0,1,2.38-1.39,2.52,2.52,0,0,1,2.08.93,4,4,0,0,1,.74,2.52,4.35,4.35,0,0,1-.84,2.8A2.8,2.8,0,0,1,52,54.62,2.3,2.3,0,0,1,49.89,53.44Zm0-2.76v.87a1.81,1.81,0,0,0,.49,1.29,1.59,1.59,0,0,0,1.24.54A1.61,1.61,0,0,0,53,52.69a3.18,3.18,0,0,0,.5-1.92A2.45,2.45,0,0,0,53,49.16a1.53,1.53,0,0,0-1.26-.59,1.72,1.72,0,0,0-1.37.6A2.28,2.28,0,0,0,49.85,50.68Z" class="cls-3"/><path d="M60.49,54.4a2.76,2.76,0,0,1-1.22.23c-1.36,0-2-.65-2-2v-4H56.06V47.47h1.17V45.85l1.59-.45v2.07h1.67v1.25H58.82v3.5a1.35,1.35,0,0,0,.23.88.93.93,0,0,0,.75.27,1.08,1.08,0,0,0,.69-.23Z" class="cls-3"/></svg>