<svg xmlns="http://www.w3.org/2000/svg" xmlns:xlink="http://www.w3.org/1999/xlink" id="Layer_1" data-name="Layer 1" viewBox="0 0 720 720"><defs><style>.cls-1{fill:none}.cls-2{fill:#1a1a1a}.cls-3{fill:url(#linear-gradient)}.cls-4{fill:url(#radial-gradient)}.cls-5{fill:#666}.cls-6{fill:url(#radial-gradient-2)}.cls-7{fill:url(#radial-gradient-3)}.cls-8{fill:url(#radial-gradient-4)}.cls-9{fill:#ccc}.cls-10{fill:url(#radial-gradient-5)}.cls-11{fill:#f2f2f2}.cls-12{fill:url(#radial-gradient-6)}.cls-13{fill:#8c3124}.cls-14{fill:#999}.cls-15{stroke:#1a1a1a;stroke-linecap:round;stroke-linejoin:round}</style><linearGradient id="linear-gradient" x1="387.97" x2="486.53" y1="412.56" y2="412.56" gradientUnits="userSpaceOnUse"><stop offset="0" stop-color="#1a1a1a"/><stop offset=".52" stop-color="#1c1c1c"/><stop offset=".78" stop-color="#242424"/><stop offset=".98" stop-color="#313131"/><stop offset="1" stop-color="#333"/></linearGradient><radialGradient id="radial-gradient" cx="368.39" cy="490.25" r="75.27" gradientUnits="userSpaceOnUse"><stop offset="0" stop-color="#333"/><stop offset=".44" stop-color="#303030"/><stop offset=".76" stop-color="#272727"/><stop offset="1" stop-color="#1a1a1a"/></radialGradient><radialGradient id="radial-gradient-2" cx="331.07" cy="174.9" r="105.31" xlink:href="#radial-gradient"/><radialGradient id="radial-gradient-3" cx="425.37" cy="186.08" r="105.31" xlink:href="#radial-gradient"/><radialGradient id="radial-gradient-4" cx="371.1" cy="346.65" r="96.48" xlink:href="#radial-gradient"/><radialGradient id="radial-gradient-5" cx="404.85" cy="327.95" r="10.05" gradientTransform="translate(-21.05 38.48) rotate(-5.82)" gradientUnits="userSpaceOnUse"><stop offset=".01" stop-color="#4d4d4d"/><stop offset="1"/></radialGradient><radialGradient id="radial-gradient-6" cx="331.14" cy="307.7" r="10.05" xlink:href="#radial-gradient-5"/></defs><rect width="720" height="720.51" x="-.33" y="-.36" class="cls-1"/><ellipse cx="373.63" cy="552.03" rx="122.55" ry="4.8"/><ellipse cx="370.78" cy="552.85" class="cls-2" rx="115.79" ry="4.11"/><path d="M423.84,320c7.84-6.65,38.65,14.61,53.26,45.48,13.33,28.18,8.93,55.43,7.93,61-1.18,6.59-7.56,38.5-34.76,60-23.45,18.51-57,25.06-61.78,15.6-6.13-12.17,43.5-34.74,53.14-85.27C451.15,366.87,414.31,328.06,423.84,320Z" class="cls-3"/><path d="M343.84,425.59h49.11a60,60,0,0,1,60,60v69.33a0,0,0,0,1,0,0H283.84a0,0,0,0,1,0,0V485.59A60,60,0,0,1,343.84,425.59Z" class="cls-4"/><path d="M361.8,454.84h0a60,60,0,0,1,60,60v40.24a0,0,0,0,1,0,0h-120a0,0,0,0,1,0,0V514.84a60,60,0,0,1,60-60Z" class="cls-5"/><path d="M303.33,174.58c31.54,75.28,1.54,135.71,15.65,140.12,15.71,4.9,68.29-65.21,62.28-137.47-1.54-18.47-7.44-35.31-19.24-69-16.39-46.75-25.36-72.36-39.62-73.34-18.39-1.27-42.46,38.59-42,76.49C280.71,137.13,292.17,148,303.33,174.58Z" class="cls-6"/><path d="M310.36,172.12C334.3,236.18,317.41,289.7,326.82,293c10.47,3.66,41.66-59.12,34.52-121.53-1.83-15.95-6.43-30.33-15.64-59.08-12.78-39.9-19.77-61.75-29.13-62.07-12.06-.4-26,35.08-24,67.91C293.92,140.52,301.89,149.46,310.36,172.12Z" class="cls-5"/><path d="M397.63,185.76c31.54,75.28,1.54,135.71,15.65,140.12,15.71,4.9,68.29-65.21,62.28-137.47-1.54-18.47-7.44-35.31-19.24-69C439.93,72.66,431,47.05,416.7,46.07c-18.39-1.27-42.46,38.59-42,76.49C375,148.31,386.47,159.13,397.63,185.76Z" class="cls-7"/><path d="M404.66,183.3c23.94,64.06,7,117.58,16.46,120.87,10.47,3.65,41.66-59.13,34.52-121.54-1.83-15.95-6.43-30.33-15.64-59.08-12.78-39.9-19.77-61.75-29.13-62.07-12.06-.4-26,35.08-24,67.91C388.22,151.7,396.19,160.64,404.66,183.3Z" class="cls-5"/><path d="M472.83,386.25c-14.51,37.41-69.73,48.5-103.86,46.8-37-1.85-92.32-20.88-101.87-61.14-11.53-48.58,46.57-115.46,110-111.67C441.58,264.1,490.84,339.78,472.83,386.25Z" class="cls-8"/><path d="M429.43,331.84a16.34,16.34,0,1,1-21.53-16.57,16.25,16.25,0,0,1,16.87,4A16.55,16.55,0,0,1,429.43,331.84Z" class="cls-9"/><path d="M425.37,321.89a10.55,10.55,0,0,1-21,2.13,10.17,10.17,0,0,1,3.52-8.75,16.25,16.25,0,0,1,16.87,4A10.44,10.44,0,0,1,425.37,321.89Z" class="cls-10"/><path d="M425.69,328.12a3.57,3.57,0,0,1-3.81,3.16,3.35,3.35,0,0,1-3.33-3.48,3.44,3.44,0,0,1,2.46-3,3.77,3.77,0,0,1,1.35-.18,3.62,3.62,0,0,1,2.33,1A3.12,3.12,0,0,1,425.69,328.12Z" class="cls-11"/><path d="M417.91,321.47a3.56,3.56,0,0,1-3.8,3.16,3.35,3.35,0,0,1-3.34-3.48,3.44,3.44,0,0,1,2.46-3,3.56,3.56,0,0,1,1.35-.18,3.62,3.62,0,0,1,2.33,1A3.12,3.12,0,0,1,417.91,321.47Z" class="cls-11"/><path d="M354.06,319.16a16.34,16.34,0,1,1-21.53-16.57,16.23,16.23,0,0,1,16.86,4A16.56,16.56,0,0,1,354.06,319.16Z" class="cls-9"/><path d="M350,309.2a10.56,10.56,0,0,1-21,2.14,10.2,10.2,0,0,1,3.53-8.75,16.23,16.23,0,0,1,16.86,4A10.48,10.48,0,0,1,350,309.2Z" class="cls-12"/><path d="M350.31,315.44a3.56,3.56,0,0,1-3.8,3.16,3.35,3.35,0,0,1-3.33-3.48,3.47,3.47,0,0,1,2.45-3A4,4,0,0,1,347,312a3.61,3.61,0,0,1,2.33,1A3.11,3.11,0,0,1,350.31,315.44Z" class="cls-11"/><path d="M342.53,308.79a3.56,3.56,0,0,1-3.8,3.16,3.35,3.35,0,0,1-3.33-3.48,3.47,3.47,0,0,1,2.45-3,4,4,0,0,1,1.35-.18,3.61,3.61,0,0,1,2.33,1A3.11,3.11,0,0,1,342.53,308.79Z" class="cls-11"/><path d="M370.73,402.57c-3.45,5.31-13,8-23.11,6.07-9.68-1.83-16.93-7.24-18.25-13,9.73-.86,18.16-5.7,22.4-12.74a18.42,18.42,0,0,0,.39,2.3C354.11,393.66,361.42,400.06,370.73,402.57Z" class="cls-13"/><path d="M366.94,399.34a8.28,8.28,0,0,1-.17,2.1,8.14,8.14,0,0,1-1,2.53c-7.8-2.36-13.93-8.38-15.56-16.36a20.14,20.14,0,0,1-.33-2.16,23.77,23.77,0,0,1-18.76,12,27.2,27.2,0,0,1-6-.1,25,25,0,0,1-19.22-13,25.58,25.58,0,0,0,16.53,8.91,26.56,26.56,0,0,0,9-.37,24,24,0,0,0,13.24-7.75,20.84,20.84,0,0,0,4.15-7.59,11.75,11.75,0,0,1-3-1.39c-6-3.94-6.73-12.77-5.49-13.58.12-.09.24-.06,1.83.31,1.91.46,2.86.69,3,.74a22.27,22.27,0,0,0,3.1.59c.22,0,.43.06.65.09,2,.23,3.89.35,4.51.39,9.42.54,12.68-.69,13.48,1,.62,1.32-.91,3.52-2.24,5.58a15.74,15.74,0,0,1-4.2,4.32,14.38,14.38,0,0,1-8.22,2.42,20.08,20.08,0,0,0,.38,5.33,19.29,19.29,0,0,0,.77,2.78A22.1,22.1,0,0,0,366.94,399.34Z" class="cls-14"/><path d="M396.83,390.2a25,25,0,0,1-18.22,14.34,26,26,0,0,1-12.83-.57,8.14,8.14,0,0,0,1-2.53,8.28,8.28,0,0,0,.17-2.1,26.11,26.11,0,0,0,14.05,1A25.57,25.57,0,0,0,396.83,390.2Z" class="cls-14"/><path d="M326,568.66v45.22h10.4v9.42H326v15.38H315V623.3H283.32v-9.52q4.29-4.83,8.81-10.47t8.69-11.53Q305,585.9,308.56,580a106.91,106.91,0,0,0,6-11.33Zm-11,45.22v-29.4a160.09,160.09,0,0,1-10.52,16.7q-5.19,7.14-9.74,12.7Z" class="cls-15"/><path d="M365.4,639.85a19.53,19.53,0,0,1-17.07-8.93q-6.13-8.94-6.13-25.83,0-18.55,6.4-28.08t18.46-9.52q23.08,0,23.09,35.89,0,17.77-6.52,27.12T365.4,639.85Zm1.12-63.33q-12.75,0-12.75,28.08,0,26.26,12.5,26.27,12.32,0,12.31-26.71Q378.58,576.53,366.52,576.52Z" class="cls-15"/><path d="M439.13,568.66v45.22h10.4v9.42h-10.4v15.38h-11V623.3H396.45v-9.52q4.29-4.83,8.81-10.47t8.7-11.53q4.17-5.88,7.73-11.79a106.91,106.91,0,0,0,6-11.33Zm-11,45.22v-29.4a163.49,163.49,0,0,1-10.52,16.7q-5.21,7.14-9.74,12.7Z" class="cls-15"/><path d="M103.87,200.78l-2.52-.94,2.44-6.54-7.11-2.65-2.43,6.55-2.51-.93,5.62-15.1,2.5.94-2.36,6.34,7.1,2.65,2.37-6.35,2.51.94Z"/><path d="M118.2,200.73,110.86,198a3.27,3.27,0,0,0,.06,2.65,3.71,3.71,0,0,0,2.11,1.71,5.74,5.74,0,0,0,3.55.14l-.73,2a7.75,7.75,0,0,1-4.24-.52,5.15,5.15,0,0,1-3.18-2.86,6.24,6.24,0,0,1,.18-4.63,6.15,6.15,0,0,1,3-3.55,5.26,5.26,0,0,1,4.29-.21,4.56,4.56,0,0,1,2.89,2.7,6.31,6.31,0,0,1-.26,4.4Zm-1.71-2.6a3.39,3.39,0,0,0,.14-2.28,2.24,2.24,0,0,0-1.41-1.36,2.53,2.53,0,0,0-2.07.11,3.75,3.75,0,0,0-1.65,1.67Z"/><path d="M128.35,209.89l-2.44-.91,2.19-5.89c.79-2.14.48-3.47-.95-4a2.38,2.38,0,0,0-2.15.25,4,4,0,0,0-1.62,2.1l-2.16,5.8-2.45-.92,5.94-15.95,2.45.91-2.59,7h0a4.13,4.13,0,0,1,4.25-.74q3.6,1.33,2,5.73Z"/><path d="M146.82,216.76l-2.44-.91,2.19-5.89c.8-2.13.48-3.47-.94-4a2.4,2.4,0,0,0-2.16.26,3.93,3.93,0,0,0-1.62,2.09l-2.15,5.8-2.46-.91,5.94-16,2.45.91-2.59,7,0,0a4.11,4.11,0,0,1,4.26-.74c2.39.89,3,2.79,1.95,5.72Z"/><path d="M160.67,216.53l-7.34-2.73a3.27,3.27,0,0,0,.06,2.65,3.64,3.64,0,0,0,2.11,1.71,5.69,5.69,0,0,0,3.56.15l-.74,2a7.66,7.66,0,0,1-4.24-.52,5.15,5.15,0,0,1-3.18-2.86,6.24,6.24,0,0,1,.18-4.63,6.1,6.1,0,0,1,3-3.54,5.18,5.18,0,0,1,4.29-.21,4.52,4.52,0,0,1,2.89,2.69,6.31,6.31,0,0,1-.26,4.4Zm-1.71-2.6a3.39,3.39,0,0,0,.14-2.28,2.24,2.24,0,0,0-1.41-1.36,2.53,2.53,0,0,0-2.07.11,3.73,3.73,0,0,0-1.65,1.68Z"/><path d="M170.82,225.69l-2.44-.91,2.19-5.89c.79-2.14.48-3.47-.95-4a2.38,2.38,0,0,0-2.15.26,3.93,3.93,0,0,0-1.62,2.09l-2.16,5.8-2.45-.91,5.94-16,2.45.91-2.59,7,0,0a4.12,4.12,0,0,1,4.25-.75q3.6,1.34,2,5.73Z"/><path d="M189.29,232.56l-2.44-.9,2.19-5.9c.8-2.13.48-3.46-.94-4a2.37,2.37,0,0,0-2.16.25,3.93,3.93,0,0,0-1.62,2.09l-2.16,5.8-2.45-.91,5.94-16,2.45.92-2.59,7,0,0a4.11,4.11,0,0,1,4.26-.74q3.58,1.34,1.95,5.72Z"/><path d="M203.14,232.34l-7.34-2.74a3.27,3.27,0,0,0,.06,2.65A3.64,3.64,0,0,0,198,234a5.69,5.69,0,0,0,3.56.15l-.74,2a7.77,7.77,0,0,1-4.24-.53,5.16,5.16,0,0,1-3.18-2.85,6.27,6.27,0,0,1,.18-4.64,6.13,6.13,0,0,1,3-3.54,5.18,5.18,0,0,1,4.29-.21,4.54,4.54,0,0,1,2.89,2.69,6.31,6.31,0,0,1-.26,4.4Zm-1.71-2.61a3.36,3.36,0,0,0,.14-2.27,2.22,2.22,0,0,0-1.41-1.36,2.53,2.53,0,0,0-2.07.1,3.73,3.73,0,0,0-1.65,1.68Z"/><path d="M213.29,241.49l-2.44-.91,2.19-5.89c.79-2.13.48-3.46-.95-4a2.35,2.35,0,0,0-2.15.25,3.93,3.93,0,0,0-1.62,2.09l-2.16,5.8-2.45-.91,5.94-16,2.45.91-2.59,7,0,0a4.09,4.09,0,0,1,4.25-.74c2.4.89,3,2.79,2,5.72Z"/><path d="M231.76,248.37l-2.44-.91,2.19-5.9c.8-2.13.48-3.46-.94-4a2.4,2.4,0,0,0-2.16.25,4,4,0,0,0-1.62,2.1l-2.16,5.79-2.45-.91,5.94-16,2.45.91-2.59,7h0a4.13,4.13,0,0,1,4.26-.74q3.58,1.33,1.95,5.72Z"/><path d="M245.61,248.14l-7.34-2.73a3.25,3.25,0,0,0,.06,2.64,3.64,3.64,0,0,0,2.11,1.71,5.69,5.69,0,0,0,3.56.15l-.74,2a7.75,7.75,0,0,1-4.24-.52,5.17,5.17,0,0,1-3.18-2.86,6.27,6.27,0,0,1,.18-4.64,6.16,6.16,0,0,1,3-3.54,5.18,5.18,0,0,1,4.29-.21,4.57,4.57,0,0,1,2.89,2.69,6.31,6.31,0,0,1-.26,4.4Zm-1.71-2.6a3.39,3.39,0,0,0,.14-2.28,2.24,2.24,0,0,0-1.41-1.36,2.53,2.53,0,0,0-2.07.1,3.78,3.78,0,0,0-1.65,1.68Z"/><path d="M255.76,257.3l-2.44-.91,2.19-5.9c.79-2.13.48-3.46-.95-4a2.38,2.38,0,0,0-2.15.25,3.93,3.93,0,0,0-1.62,2.09l-2.16,5.8-2.45-.91,5.94-16,2.45.92-2.59,7,0,0a4.09,4.09,0,0,1,4.25-.74q3.6,1.33,2,5.72Z"/><path d="M513.1,319.39l-2.57.76-2-6.7-7.27,2.15,2,6.7-2.57.76-4.56-15.45,2.56-.76,1.92,6.5,7.27-2.15L506,304.71l2.57-.77Z"/><path d="M524.54,310.75,517,313a3.31,3.31,0,0,0,1.64,2.08,3.64,3.64,0,0,0,2.72.1,5.72,5.72,0,0,0,2.93-2l.59,2a7.68,7.68,0,0,1-3.7,2.13,5.17,5.17,0,0,1-4.26-.38,6.28,6.28,0,0,1-2.64-3.82,6.13,6.13,0,0,1,.29-4.64,5.18,5.18,0,0,1,3.3-2.74,4.5,4.5,0,0,1,3.93.42,6.26,6.26,0,0,1,2.44,3.67Zm-2.93-1.06a3.4,3.4,0,0,0-1.26-1.9,2.18,2.18,0,0,0-1.94-.24,2.53,2.53,0,0,0-1.6,1.33,3.78,3.78,0,0,0-.31,2.32Z"/><path d="M538.15,312l-2.5.74-1.78-6q-1-3.27-3.16-2.63a2.41,2.41,0,0,0-1.57,1.5,4,4,0,0,0,0,2.65l1.76,5.93-2.51.74-4.83-16.33,2.51-.74,2.11,7.13h0a4.12,4.12,0,0,1,3-3.15c2.45-.72,4.12.41,5,3.41Z"/><path d="M557.05,306.4l-2.5.74-1.78-6c-.64-2.18-1.7-3.05-3.15-2.62A2.37,2.37,0,0,0,548,300a4,4,0,0,0,0,2.65l1.75,5.93-2.51.74L542.42,293l2.51-.74,2.11,7.12h0a4.11,4.11,0,0,1,3-3.14c2.45-.73,4.12.41,5,3.4Z"/><path d="M568,297.9l-7.52,2.23a3.34,3.34,0,0,0,1.64,2.08,3.69,3.69,0,0,0,2.72.09,5.64,5.64,0,0,0,2.93-2l.59,2a7.8,7.8,0,0,1-3.7,2.12,5.15,5.15,0,0,1-4.27-.37,6.31,6.31,0,0,1-2.63-3.82,6.11,6.11,0,0,1,.29-4.65,5.18,5.18,0,0,1,3.3-2.74,4.57,4.57,0,0,1,3.93.42,6.32,6.32,0,0,1,2.43,3.68Zm-2.94-1a3.4,3.4,0,0,0-1.25-1.91,2.27,2.27,0,0,0-1.95-.24,2.57,2.57,0,0,0-1.59,1.33,3.74,3.74,0,0,0-.31,2.33Z"/><path d="M581.61,299.14l-2.5.74-1.78-6c-.65-2.19-1.7-3.06-3.16-2.63a2.4,2.4,0,0,0-1.57,1.49,3.92,3.92,0,0,0,0,2.65l1.76,5.93-2.51.75L567,285.71l2.51-.74,2.11,7.13,0,0a4.12,4.12,0,0,1,3-3.14c2.45-.73,4.11.41,5,3.4Z"/><path d="M600.51,293.55l-2.5.74-1.78-6q-1-3.27-3.16-2.63a2.41,2.41,0,0,0-1.57,1.5,3.9,3.9,0,0,0,0,2.64l1.76,5.94-2.51.74-4.83-16.33,2.51-.74,2.11,7.13h0a4.12,4.12,0,0,1,3-3.15c2.45-.72,4.11.41,5,3.41Z"/><path d="M611.45,285.06l-7.51,2.22a3.3,3.3,0,0,0,1.63,2.08,3.64,3.64,0,0,0,2.72.1,5.68,5.68,0,0,0,2.93-2l.6,2a7.77,7.77,0,0,1-3.71,2.13,5.14,5.14,0,0,1-4.26-.38,6.23,6.23,0,0,1-2.63-3.82,6.09,6.09,0,0,1,.28-4.64,5.19,5.19,0,0,1,3.31-2.74,4.5,4.5,0,0,1,3.93.42,6.29,6.29,0,0,1,2.43,3.67ZM608.52,284a3.33,3.33,0,0,0-1.26-1.91,2.18,2.18,0,0,0-1.94-.24,2.48,2.48,0,0,0-1.59,1.33,3.71,3.71,0,0,0-.32,2.32Z"/><path d="M625.06,286.29l-2.5.74-1.78-6c-.64-2.18-1.7-3.06-3.15-2.63a2.39,2.39,0,0,0-1.57,1.5,3.92,3.92,0,0,0,0,2.65l1.75,5.93-2.51.74-4.82-16.33,2.51-.74,2.1,7.13h.05a4.11,4.11,0,0,1,2.95-3.15c2.45-.72,4.12.41,5,3.41Z"/><path d="M644,280.71l-2.49.74-1.79-6c-.64-2.19-1.69-3.06-3.15-2.63a2.35,2.35,0,0,0-1.57,1.49,3.92,3.92,0,0,0,0,2.65l1.75,5.93-2.51.75-4.82-16.33,2.51-.74,2.1,7.13,0,0a4.1,4.1,0,0,1,3-3.14c2.45-.73,4.12.41,5,3.4Z"/><path d="M654.91,272.21l-7.52,2.23a3.34,3.34,0,0,0,1.64,2.08,3.69,3.69,0,0,0,2.72.1,5.68,5.68,0,0,0,2.93-2l.59,2a7.72,7.72,0,0,1-3.7,2.12,5.13,5.13,0,0,1-4.26-.37,6.28,6.28,0,0,1-2.64-3.82,6.16,6.16,0,0,1,.29-4.65,5.2,5.2,0,0,1,3.3-2.74,4.57,4.57,0,0,1,3.93.42,6.28,6.28,0,0,1,2.44,3.68Zm-2.94-1a3.34,3.34,0,0,0-1.25-1.9,2.2,2.2,0,0,0-2-.24,2.55,2.55,0,0,0-1.59,1.32,3.74,3.74,0,0,0-.31,2.33Z"/><path d="M668.52,273.45l-2.5.74-1.78-6c-.65-2.19-1.7-3.06-3.16-2.63a2.39,2.39,0,0,0-1.57,1.5,4,4,0,0,0,0,2.64l1.76,5.94-2.51.74L653.89,260l2.51-.74,2.11,7.13h0a4.12,4.12,0,0,1,3-3.15c2.45-.72,4.12.41,5,3.41Z"/><path d="M185.9,684.23v12.7h-5.78v-35h10.62q6,0,9.35,2.81a9.79,9.79,0,0,1,3.32,7.91,10.91,10.91,0,0,1-3.47,8.34q-3.47,3.25-9.37,3.25Zm0-17.53v12.8h3.76a8.29,8.29,0,0,0,5.69-1.74,6.18,6.18,0,0,0,2-4.88q0-6.18-7.17-6.18Z" class="cls-15"/><path d="M226.46,696.93H221V693h-.1a8.25,8.25,0,0,1-7.59,4.49,8,8,0,0,1-5.77-2,7,7,0,0,1-2.09-5.3q0-7.08,8.15-8.25l7.43-1.05c0-3.56-1.7-5.35-5.08-5.35a12.07,12.07,0,0,0-8.06,3.08v-5a17.6,17.6,0,0,1,9.13-2.34q9.48,0,9.48,9.33ZM221,684.65l-5.25.73a8.41,8.41,0,0,0-3.68,1.18,3.47,3.47,0,0,0-1.23,3,3.31,3.31,0,0,0,1.14,2.6,4.36,4.36,0,0,0,3,1,5.62,5.62,0,0,0,4.29-1.82,6.47,6.47,0,0,0,1.7-4.58Z" class="cls-15"/><path d="M256.12,694.93q0,13.76-13.84,13.76a20.67,20.67,0,0,1-8.53-1.63v-5.18a15.72,15.72,0,0,0,7.79,2.35q8.91,0,8.91-8.77v-2.73h-.09a9.83,9.83,0,0,1-15.81,1.45q-2.81-3.33-2.8-8.95,0-6.37,3-10.13a10,10,0,0,1,8.25-3.76,8,8,0,0,1,7.35,4h.09v-3.46h5.67Zm-5.62-9.45v-3.25a6.35,6.35,0,0,0-1.74-4.5,5.72,5.72,0,0,0-4.36-1.87,6,6,0,0,0-5,2.38,10.75,10.75,0,0,0-1.82,6.65,9.23,9.23,0,0,0,1.75,5.9,5.6,5.6,0,0,0,4.62,2.21,6,6,0,0,0,4.76-2.12A7.94,7.94,0,0,0,250.5,685.48Z" class="cls-15"/><path d="M284.66,686h-17a7.16,7.16,0,0,0,2.13,5.34,7.93,7.93,0,0,0,5.61,1.88,12.41,12.41,0,0,0,7.35-2.39v4.56a16.73,16.73,0,0,1-9,2.15q-5.52,0-8.65-3.4t-3.14-9.59a13.33,13.33,0,0,1,3.45-9.5,11.33,11.33,0,0,1,8.59-3.68,9.85,9.85,0,0,1,7.93,3.3c1.87,2.19,2.81,5.25,2.81,9.15Zm-5.47-4a7.35,7.35,0,0,0-1.44-4.75,4.83,4.83,0,0,0-3.91-1.69,5.47,5.47,0,0,0-4.13,1.78,8.08,8.08,0,0,0-2.09,4.66Z" class="cls-15"/><path d="M334.12,696.93h-6.35l-16.72-25.74a11.76,11.76,0,0,1-1.05-2h-.15a35.78,35.78,0,0,1,.2,4.81v22.95h-5.62v-35h6.77L327.36,687c.68,1,1.12,1.76,1.32,2.15h.09a31.66,31.66,0,0,1-.24-4.71V661.92h5.59Z" class="cls-15"/><path d="M353.24,697.51A12.36,12.36,0,0,1,344,694a12.64,12.64,0,0,1-3.46-9.29q0-6.3,3.6-9.84t9.71-3.54q5.85,0,9.13,3.44t3.27,9.55a13.1,13.1,0,0,1-3.53,9.58A12.66,12.66,0,0,1,353.24,697.51Zm.27-21.65a6.44,6.44,0,0,0-5.25,2.32,9.67,9.67,0,0,0-1.93,6.39,9.15,9.15,0,0,0,1.95,6.19,6.54,6.54,0,0,0,5.23,2.26,6.2,6.2,0,0,0,5.13-2.22,9.81,9.81,0,0,0,1.8-6.32,10,10,0,0,0-1.8-6.38A6.18,6.18,0,0,0,353.51,675.86Z" class="cls-15"/><path d="M385.2,696.66a9.89,9.89,0,0,1-4.37.83q-7.29,0-7.28-7V676.37h-4.18v-4.44h4.18v-5.79l5.66-1.61v7.4h6v4.44h-6v12.5A4.89,4.89,0,0,0,380,692a3.33,3.33,0,0,0,2.69,1,3.91,3.91,0,0,0,2.49-.83Z" class="cls-15"/><path d="M423.35,666.85H410.27v10.52h12.06v4.91H410.27v14.65h-5.81v-35h18.89Z" class="cls-15"/><path d="M440,697.51a12.36,12.36,0,0,1-9.24-3.5,12.68,12.68,0,0,1-3.46-9.29q0-6.3,3.6-9.84t9.71-3.54q5.87,0,9.13,3.44t3.27,9.55a13.06,13.06,0,0,1-3.53,9.58A12.66,12.66,0,0,1,440,697.51Zm.27-21.65a6.44,6.44,0,0,0-5.25,2.32,9.67,9.67,0,0,0-1.93,6.39,9.15,9.15,0,0,0,1.95,6.19A6.56,6.56,0,0,0,440.3,693a6.23,6.23,0,0,0,5.14-2.22,9.87,9.87,0,0,0,1.79-6.32,10.05,10.05,0,0,0-1.79-6.38A6.22,6.22,0,0,0,440.3,675.86Z" class="cls-15"/><path d="M480.61,696.93h-5.67v-4h-.1a8.14,8.14,0,0,1-7.66,4.54q-8.87,0-8.86-10.64V671.93H464v14.35q0,6.74,5.2,6.74a5.27,5.27,0,0,0,4.14-1.85,7.13,7.13,0,0,0,1.62-4.86V671.93h5.67Z" class="cls-15"/><path d="M510.24,696.93h-5.66V682.84q0-7-5-7a5.42,5.42,0,0,0-4.27,1.94,7.23,7.23,0,0,0-1.68,4.9v14.26H488v-25h5.69v4.15h.09a8.93,8.93,0,0,1,8.11-4.74A7.55,7.55,0,0,1,508.1,674q2.14,2.65,2.14,7.65Z" class="cls-15"/><path d="M539.88,696.93h-5.66v-4.25h-.1a9.79,9.79,0,0,1-15.81,1.48c-1.84-2.24-2.77-5.29-2.77-9.15q0-6.19,3.07-9.93a10,10,0,0,1,8.16-3.74,7.82,7.82,0,0,1,7.35,4h.1V659.92h5.66Zm-5.59-11.43v-3.27a6.42,6.42,0,0,0-1.73-4.52,5.81,5.81,0,0,0-4.42-1.85,5.94,5.94,0,0,0-5,2.37,10.48,10.48,0,0,0-1.82,6.56,9.48,9.48,0,0,0,1.74,6,5.69,5.69,0,0,0,4.7,2.21,5.88,5.88,0,0,0,4.72-2.14A8,8,0,0,0,534.29,685.5Z" class="cls-15"/></svg>