<svg id="Layer_1" data-name="Layer 1" xmlns="http://www.w3.org/2000/svg" viewBox="0 0 85 85"><defs><style>.cls-1{fill:none;}.cls-2{fill:#e6e6e6;}.cls-3{fill:#1a1a1a;stroke:#1a1a1a;stroke-linecap:round;stroke-linejoin:round;}</style></defs><rect class="cls-1" x="0.03" y="0.01" width="84.89" height="85.06"/><circle class="cls-2" cx="42.54" cy="42.41" r="34.09"/><path class="cls-3" d="M30.75,45.43A6,6,0,0,1,28,46a4.47,4.47,0,0,1-3.41-1.35,4.87,4.87,0,0,1-1.29-3.53,5.11,5.11,0,0,1,1.45-3.8,4.92,4.92,0,0,1,3.65-1.45,6,6,0,0,1,2.36.4v1.62a4.14,4.14,0,0,0-2.19-.59,3.43,3.43,0,0,0-2.58,1A3.73,3.73,0,0,0,25,41a3.55,3.55,0,0,0,.93,2.58,3.19,3.19,0,0,0,2.42,1,4.33,4.33,0,0,0,2.41-.66Z"/><path class="cls-3" d="M38.07,45.84H32.64V36h1.63v8.43h3.8Z"/><path class="cls-3" d="M45,45.84H43.49v-1.1h0A2.31,2.31,0,0,1,41.34,46a2.26,2.26,0,0,1-1.62-.56A2,2,0,0,1,39.13,44c0-1.33.77-2.1,2.29-2.31l2.08-.3c0-1-.48-1.5-1.43-1.5a3.35,3.35,0,0,0-2.25.87V39.33a4.9,4.9,0,0,1,2.56-.66A2.33,2.33,0,0,1,45,41.28ZM43.5,42.4,42,42.6a2.35,2.35,0,0,0-1,.33,1,1,0,0,0-.35.86.93.93,0,0,0,.32.72,1.23,1.23,0,0,0,.85.29,1.58,1.58,0,0,0,1.2-.51A1.8,1.8,0,0,0,43.5,43Z"/><path class="cls-3" d="M53.27,45.84H51.68v-4c0-1.31-.46-2-1.38-2a1.52,1.52,0,0,0-1.2.54,2.05,2.05,0,0,0-.47,1.37v4H47v-7h1.59V40h0a2.48,2.48,0,0,1,2.27-1.33,2.12,2.12,0,0,1,1.74.74,3.36,3.36,0,0,1,.6,2.15Z"/><path class="cls-3" d="M61.71,45.28q0,3.86-3.88,3.85a5.68,5.68,0,0,1-2.38-.46V47.22a4.37,4.37,0,0,0,2.18.66,2.18,2.18,0,0,0,2.49-2.45v-.77h0A2.59,2.59,0,0,1,57.73,46a2.56,2.56,0,0,1-2.06-.93,3.79,3.79,0,0,1-.78-2.51,4.45,4.45,0,0,1,.84-2.84,2.8,2.8,0,0,1,2.31-1,2.24,2.24,0,0,1,2.06,1.14h0v-1h1.59Zm-1.57-2.65v-.91a1.81,1.81,0,0,0-.49-1.26,1.6,1.6,0,0,0-1.22-.52A1.68,1.68,0,0,0,57,40.6a3,3,0,0,0-.51,1.87A2.59,2.59,0,0,0,57,44.12a1.56,1.56,0,0,0,1.29.62,1.66,1.66,0,0,0,1.33-.6A2.17,2.17,0,0,0,60.14,42.63Z"/></svg>