<?xml version="1.0" encoding="utf-8"?>
<!-- Generator: Adobe Illustrator 24.1.1, SVG Export Plug-In . SVG Version: 6.00 Build 0)  -->
<svg version="1.1" id="Layer_1" xmlns="http://www.w3.org/2000/svg" xmlns:xlink="http://www.w3.org/1999/xlink" x="0px" y="0px"
	 viewBox="0 0 24 24" style="enable-background:new 0 0 24 24;" xml:space="preserve">
<style type="text/css">
	.st0{fill:#FFFFFF;}
	.st1{fill:none;stroke:#FFFDFD;stroke-width:2;stroke-linecap:round;stroke-linejoin:round;}
</style>
<path class="st0" d="M17,20.2l-0.6,2.2c-0.2,0.8-1.3,1.3-2.3,1c-0.1,0-0.1,0-0.2-0.1c-2.8-1-5.3-2.6-7.4-4.5c-1.9-1.7-3.5-3.8-4.4-6
	C1.1,10.5,0.8,8,1,5.5c0.1-0.8,1.1-1.3,2.1-1.1c0.1,0,0.2,0.1,0.2,0.1l2.8,0.8c0.9,0.3,1.6,1,1.5,1.8s0,1.5,0.1,2.3
	c0.1,0.6-0.2,1.2-0.8,1.5l-1.5,0.6c0.8,2.2,2.3,4.3,4.4,6l1.5-0.6c0.7-0.2,1.5-0.2,2,0.2c0.8,0.5,1.6,0.9,2.5,1.2S17.2,19.5,17,20.2
	z"/>
<path class="st1" d="M13.6,2.3c0.7,0.1,3.7,0.5,6,3.1c2.8,3.3,2.1,7.3,2,7.9"/>
<path class="st1" d="M14.1,5.7c0.4,0.1,2,0.4,3.2,1.9c1.6,1.9,1.3,4,1.3,4.3"/>
<ellipse class="st0" cx="14.1" cy="10.5" rx="1.7" ry="1.6"/>
</svg>
