<svg id="Layer_1" data-name="Layer 1" xmlns="http://www.w3.org/2000/svg" viewBox="0 0 85 85"><defs><style>.cls-1{fill:none;}.cls-2{fill:#e6e6e6;}.cls-3{fill:#1a1a1a;stroke:#1a1a1a;stroke-linecap:round;stroke-linejoin:round;}</style></defs><rect class="cls-1" x="0.14" y="-0.07" width="84.89" height="85.06"/><circle class="cls-2" cx="42.65" cy="42.33" r="34.09"/><path class="cls-3" d="M37.92,47a6,6,0,0,1-2.76.58,4.51,4.51,0,0,1-3.42-1.35,5,5,0,0,1-1.28-3.54,5.17,5.17,0,0,1,1.44-3.8,5,5,0,0,1,3.66-1.45,6,6,0,0,1,2.36.41v1.61a4.23,4.23,0,0,0-2.19-.59,3.43,3.43,0,0,0-2.58,1,3.74,3.74,0,0,0-1,2.72,3.59,3.59,0,0,0,.92,2.58,3.23,3.23,0,0,0,2.43,1,4.41,4.41,0,0,0,2.41-.65Z"/><path class="cls-3" d="M45.7,43.92H43v2.7H41.87v-2.7h-2.7V42.79h2.7V40.08H43v2.71h2.7Z"/><path class="cls-3" d="M54.54,43.92h-2.7v2.7H50.71v-2.7H48V42.79h2.7V40.08h1.13v2.71h2.7Z"/></svg>