<svg id="Layer_1" data-name="Layer 1" xmlns="http://www.w3.org/2000/svg" viewBox="0 0 85 85"><defs><style>.cls-1{fill:none;}.cls-2{fill:#e6e6e6;}.cls-3{stroke:#1a1a1a;stroke-linecap:round;stroke-linejoin:round;}</style></defs><rect class="cls-1" x="0.12" y="-0.02" width="84.89" height="85.06"/><circle class="cls-2" cx="42.63" cy="42.39" r="34.09"/><path class="cls-3" d="M42.41,44.44a3.82,3.82,0,0,1-4.07,3c-3,0-4.47-2.18-4.47-4.93s1.49-5,4.55-5c2.48,0,3.73,1.44,4,3.06H40.58A2.08,2.08,0,0,0,38.36,39c-1.87,0-2.6,1.68-2.6,3.51S36.42,46,38.42,46a2.11,2.11,0,0,0,2.16-1.59Z"/><path class="cls-3" d="M43.8,43.45h6.68V44.8H43.8Zm2.82-5.51h1.2l-2.28,9.41H44.29ZM44.5,40.26h6.63v1.35H44.5Zm5-2.32h1.2l-2.27,9.41H47.14Z"/></svg>