<svg xmlns="http://www.w3.org/2000/svg" id="Layer_1" data-name="Layer 1" viewBox="0 0 85 85"><defs><style>.cls-1{fill:none}.cls-2{fill:#e6e6e6}.cls-3{fill:#1a1a1a;stroke:#1a1a1a;stroke-linecap:round;stroke-linejoin:round}</style></defs><rect width="84.89" height="85.06" x=".07" y=".1" class="cls-1"/><circle cx="42.58" cy="42.5" r="34.09" class="cls-2"/><path d="M34.88,47a6,6,0,0,1-2.76.58,4.47,4.47,0,0,1-3.41-1.35,4.91,4.91,0,0,1-1.29-3.54,5.14,5.14,0,0,1,1.45-3.8,5,5,0,0,1,3.65-1.45,6,6,0,0,1,2.36.41v1.61a4.23,4.23,0,0,0-2.19-.59,3.43,3.43,0,0,0-2.58,1,3.74,3.74,0,0,0-1,2.72,3.55,3.55,0,0,0,.93,2.58,3.19,3.19,0,0,0,2.42,1,4.41,4.41,0,0,0,2.41-.65Z" class="cls-3"/><path d="M36.3,47V45.34a2.84,2.84,0,0,0,.54.37,3.81,3.81,0,0,0,.66.27,4.5,4.5,0,0,0,.7.18,3.72,3.72,0,0,0,.64.06,2.84,2.84,0,0,0,1.53-.34,1.14,1.14,0,0,0,.5-1,1.09,1.09,0,0,0-.17-.61,1.61,1.61,0,0,0-.47-.47,5,5,0,0,0-.7-.4L38.66,43q-.51-.27-.93-.54a3.5,3.5,0,0,1-.75-.61,2.61,2.61,0,0,1-.5-.74,2.48,2.48,0,0,1-.18-1,2.23,2.23,0,0,1,.31-1.2,2.63,2.63,0,0,1,.82-.84,3.81,3.81,0,0,1,1.16-.5,5.81,5.81,0,0,1,1.32-.16,5.42,5.42,0,0,1,2.25.35v1.61a3.62,3.62,0,0,0-2.15-.6,3.51,3.51,0,0,0-.72.07,2,2,0,0,0-.64.22,1.44,1.44,0,0,0-.47.41,1,1,0,0,0-.17.59,1.14,1.14,0,0,0,.13.57,1.47,1.47,0,0,0,.4.43,3.28,3.28,0,0,0,.65.39c.25.13.54.26.87.41a9.88,9.88,0,0,1,1,.56,4.28,4.28,0,0,1,.8.65,3,3,0,0,1,.55.79,2.4,2.4,0,0,1,.2,1,2.44,2.44,0,0,1-.3,1.25,2.5,2.5,0,0,1-.81.84,3.58,3.58,0,0,1-1.17.46,6.39,6.39,0,0,1-1.4.15c-.17,0-.37,0-.61,0s-.48-.06-.73-.11a6.88,6.88,0,0,1-.72-.18A2,2,0,0,1,36.3,47Z" class="cls-3"/><path d="M44,47V45.34a2.84,2.84,0,0,0,.54.37,3.81,3.81,0,0,0,.66.27,4.39,4.39,0,0,0,.69.18,3.93,3.93,0,0,0,.65.06A2.78,2.78,0,0,0,48,45.88a1.12,1.12,0,0,0,.51-1,1.09,1.09,0,0,0-.17-.61,1.75,1.75,0,0,0-.47-.47,5,5,0,0,0-.7-.4L46.31,43q-.5-.27-.93-.54a4.08,4.08,0,0,1-.75-.61,2.58,2.58,0,0,1-.49-.74,2.48,2.48,0,0,1-.19-1,2.24,2.24,0,0,1,.32-1.2,2.53,2.53,0,0,1,.82-.84,3.86,3.86,0,0,1,1.15-.5,6,6,0,0,1,1.33-.16,5.36,5.36,0,0,1,2.24.35v1.61a3.57,3.57,0,0,0-2.14-.6,3.68,3.68,0,0,0-.73.07,2.2,2.2,0,0,0-.64.22,1.4,1.4,0,0,0-.46.41,1,1,0,0,0-.18.59,1.15,1.15,0,0,0,.14.57,1.34,1.34,0,0,0,.4.43,3.5,3.5,0,0,0,.64.39l.88.41c.34.18.67.36,1,.56a4.28,4.28,0,0,1,.8.65,2.78,2.78,0,0,1,.54.79,2.25,2.25,0,0,1,.21,1,2.44,2.44,0,0,1-.3,1.25,2.5,2.5,0,0,1-.81.84,3.55,3.55,0,0,1-1.18.46,6.33,6.33,0,0,1-1.4.15c-.16,0-.36,0-.6,0s-.49-.06-.74-.11-.48-.11-.71-.18A2,2,0,0,1,44,47Z" class="cls-3"/><path d="M51.65,47V45.55a3.43,3.43,0,0,0,2.16.76,2.49,2.49,0,0,0,1.56-.45,1.42,1.42,0,0,0,.59-1.2c0-1.11-.85-1.67-2.55-1.67h-.76V41.72h.72c1.51,0,2.27-.52,2.27-1.57s-.59-1.45-1.77-1.45a2.89,2.89,0,0,0-1.85.7V38a4.69,4.69,0,0,1,2.36-.57,3.14,3.14,0,0,1,2.09.66,2.08,2.08,0,0,1,.79,1.68,2.4,2.4,0,0,1-2,2.49v0A2.57,2.57,0,0,1,57,43a2.23,2.23,0,0,1,.62,1.6,2.59,2.59,0,0,1-1,2.12,3.94,3.94,0,0,1-2.61.82A4.49,4.49,0,0,1,51.65,47Z" class="cls-3"/></svg>