<svg xmlns="http://www.w3.org/2000/svg" viewBox="0 0 23.76 23.76"><defs><style>.cls-1{fill:none;}.cls-2{fill:#f2f2f2;}.cls-3{fill:#1a1a1a;}.cls-4{fill:#333;}</style></defs><g id="email"><rect class="cls-1" x="0.06" y="0.02" width="23.74" height="23.74"/><path class="cls-2" d="M20.46,19.7H3.28A2.17,2.17,0,0,1,1.2,17.44V6.91A2.17,2.17,0,0,1,3.28,4.66H20.46a2,2,0,0,1,1.47.66,2.33,2.33,0,0,1,.61,1.59V17.44A2.17,2.17,0,0,1,20.46,19.7Z"/><path class="cls-3" d="M14.9,9.56a9.86,9.86,0,0,0-3.12-.47,9.6,9.6,0,0,0-3.36.65A9.18,9.18,0,0,0,6,11.13c-3.09,2.74-4.92,5.33-4.8,6.55a2.62,2.62,0,0,0,.54,1.42,2.06,2.06,0,0,0,1,.62,4.57,4.57,0,0,0,1.15.07h1c.68,0,1.1,0,1.54,0,2.27,0,11.07,0,12.41,0h.92c.52,0,.54,0,.7,0A2.21,2.21,0,0,0,22.05,19a2.55,2.55,0,0,0,.51-1.37c.14-1.37-1.49-3.86-4.26-6.44A11.71,11.71,0,0,0,14.9,9.56Z"/><path class="cls-2" d="M14.86,10a9.84,9.84,0,0,0-3.11-.47,9.47,9.47,0,0,0-5.78,2c-3.09,2.75-4.91,5.34-4.8,6.56a2.63,2.63,0,0,0,.55,1.42,2,2,0,0,0,1,.62,4.62,4.62,0,0,0,1.16.07h1c.67,0,1.1,0,1.54,0,2.26,0,11.06,0,12.4,0h.93c.52,0,.54,0,.7,0A2.19,2.19,0,0,0,22,19.45a2.6,2.6,0,0,0,.52-1.37c.13-1.37-1.49-3.86-4.27-6.44A11.59,11.59,0,0,0,14.86,10Z"/><path class="cls-4" d="M14.9,13.07a11.45,11.45,0,0,1-3.12.4,11.15,11.15,0,0,1-3.36-.55A10,10,0,0,1,6,11.75c-3.09-2.31-4.92-4.5-4.8-5.52A2.09,2.09,0,0,1,1.75,5a2.24,2.24,0,0,1,1-.52,5.7,5.7,0,0,1,1.15,0h1c.68,0,1.1,0,1.54,0,2.27,0,11.07,0,12.41,0h.92c.52,0,.54,0,.7,0a2.44,2.44,0,0,1,1.54.63,2,2,0,0,1,.51,1.15c.14,1.16-1.49,3.26-4.26,5.43A12.34,12.34,0,0,1,14.9,13.07Z"/><path class="cls-2" d="M14.86,12.25a12.53,12.53,0,0,1-3.11.38,11.87,11.87,0,0,1-3.37-.52A10.92,10.92,0,0,1,6,11C2.88,8.82,1.06,6.77,1.17,5.8a1.89,1.89,0,0,1,.55-1.13,2.29,2.29,0,0,1,1-.49,5.77,5.77,0,0,1,1.16,0H6.45c2.26,0,11.06,0,12.4,0h.93c.52,0,.54,0,.7,0A2.41,2.41,0,0,1,22,4.72a1.88,1.88,0,0,1,.52,1.09c.13,1.08-1.49,3.07-4.27,5.11A12.61,12.61,0,0,1,14.86,12.25Z"/></g></svg>