<svg xmlns="http://www.w3.org/2000/svg" xmlns:xlink="http://www.w3.org/1999/xlink" id="Layer_1" x="0" y="0" version="1.1" viewBox="0 0 48 48" xml:space="preserve" style="enable-background:new 0 0 48 48"><style type="text/css">.st0{stroke-width:1.5;stroke-miterlimit:10}.st0,.st1,.st2{fill:#fff;stroke:#fff}.st1{stroke-width:1.5;stroke-miterlimit:9.9999}.st2{stroke-miterlimit:10}</style><g id="Expanded"><g><g><path d="M11,46L11,46c-1.2,0-2.4-0.2-3.5-0.7c-0.3-0.1-0.5-0.4-0.6-0.7s0-0.7,0.3-0.9l3.5-3.5v-2.8H7.9l-3.5,3.5 c-0.2,0.2-0.6,0.3-0.9,0.3c-0.3-0.1-0.6-0.3-0.7-0.6c-1.4-3.4-0.7-7.3,1.9-9.9c1.7-1.7,4-2.6,6.4-2.6c1,0,2,0.2,2.9,0.5L28.6,14 c-1.1-3.2-0.3-6.8,2.2-9.2C32.3,2.9,34.6,2,37,2c1.2,0,2.4,0.2,3.5,0.7c0.3,0.1,0.5,0.4,0.6,0.7s0,0.7-0.3,0.9l-3.5,3.5v2.8h2.8 l3.5-3.5c0.2-0.2,0.6-0.3,0.9-0.3c0.3,0.1,0.6,0.3,0.7,0.6c1.4,3.4,0.7,7.3-1.9,9.9c-1.7,1.7-4,2.6-6.4,2.6c-1,0-2-0.2-2.9-0.5 L19.5,34.1c1.1,3.2,0.3,6.8-2.2,9.2C15.7,45.1,13.4,46,11,46z M9.8,43.9C10.2,44,10.6,44,11,44c1.9,0,3.6-0.7,4.9-2 c2-2,2.6-5,1.5-7.7c-0.2-0.4-0.1-0.8,0.2-1.1l15.5-15.5c0.3-0.3,0.7-0.4,1.1-0.2c0.9,0.4,1.8,0.6,2.7,0.6c1.9,0,3.6-0.7,4.9-2 c1.6-1.6,2.3-4,1.9-6.2l-2.6,2.6c-0.2,0.2-0.4,0.3-0.7,0.3h-4.2c-0.6,0-1-0.4-1-1V7.5c0-0.3,0.1-0.5,0.3-0.7l2.6-2.6 C37.8,4,37.4,4,37,4c-1.9,0-3.6,0.7-4.9,2c-2,2-2.6,5-1.5,7.7c0.2,0.4,0.1,0.8-0.2,1.1L14.8,30.3c-0.3,0.3-0.7,0.4-1.1,0.2 C12.9,30.2,11.9,30,11,30c-1.9,0-3.6,0.7-4.9,2c-1.6,1.6-2.3,4-1.9,6.2l2.6-2.6c0.2-0.2,0.4-0.3,0.7-0.3h4.2c0.6,0,1,0.4,1,1v4.2 c0,0.3-0.1,0.5-0.3,0.7L9.8,43.9z" class="st0"/></g><g><path d="M42,46c-1.1,0-2.1-0.4-2.8-1.2L30,35.6c-0.4-0.4-0.4-1,0-1.4l4.2-4.2c0.4-0.4,1-0.4,1.4,0l9.2,9.2 C45.6,40,46,41,46,42c0,1.1-0.4,2.1-1.2,2.8C44.1,45.6,43.1,46,42,46z M32.1,34.9l8.5,8.5c0.8,0.8,2.1,0.8,2.8,0 C43.8,43,44,42.5,44,42s-0.2-1-0.6-1.4l-8.5-8.5L32.1,34.9z" class="st0"/></g><g><rect width="2" height="16.1" x="14.8" y="7.7" class="st1" transform="matrix(0.7071 -0.7071 0.7071 0.7071 -6.5102 15.7647)"/></g><g><path d="M28.6,38c-0.3,0-0.5-0.1-0.7-0.3c-0.4-0.4-0.4-1,0-1.4l8.5-8.5c0.4-0.4,1-0.4,1.4,0s0.4,1,0,1.4l-8.5,8.5 C29.1,38,28.8,38,28.6,38z" class="st0"/></g><g><path d="M8.7,12.5c-0.3,0-0.5-0.1-0.7-0.3L2.3,6.5C2.1,6.3,2,6.1,2,5.8s0.1-0.5,0.3-0.7l2.8-2.8c0.4-0.4,1-0.4,1.4,0 L12.2,8c0.2,0.2,0.3,0.4,0.3,0.7s-0.1,0.5-0.3,0.7l-2.8,2.8C9.2,12.4,8.9,12.5,8.7,12.5z M4.4,5.8L8.6,10L10,8.6L5.8,4.4L4.4,5.8 z" class="st0"/></g><g><rect width="2" height="10.4" x="28.4" y="24.2" class="st1" transform="matrix(0.7071 -0.7071 0.7071 0.7071 -12.1737 29.4006)"/></g></g></g><polygon points="4.9 35.5 8.6 34.2 12.5 34.6 14 40.9 11.9 43.3 16.8 39.8 16.4 33.1 14 30.6 8.8 30.3" class="st2"/><polygon points="15 31.3 31.1 15.7 32.6 17 16.4 33" class="st2"/><path d="M31.2,8.8C33.8,4.8,36,5,36,5l-1.6,7l1.7,1.7l6.5-1.7l-1.2,3.7l-4.5,1.9l-3.5-0.8l-2.2-2V8.8z" class="st2"/><path d="M4.9,5.6C5.8,4.4,5.8,5,5.8,5l3.6,3.4L8.3,9.3L4.4,5.8" class="st2"/><path d="M33.8,34.9c1.1-1.1,1.1-1.1,1.1-1.1l7.7,7.5l0.4,1.2l-0.8,0.8L41,42.5L33.8,34.9z" class="st2"/></svg>