<?xml version="1.0" encoding="utf-8"?>
<!-- Generator: Adobe Illustrator 24.1.1, SVG Export Plug-In . SVG Version: 6.00 Build 0)  -->
<svg version="1.1" id="Layer_1" xmlns="http://www.w3.org/2000/svg" xmlns:xlink="http://www.w3.org/1999/xlink" x="0px" y="0px"
	 viewBox="0 0 24 24" style="enable-background:new 0 0 24 24;" xml:space="preserve">
<style type="text/css">
	.st0{fill:#FFFFFF;stroke:#FEFEFE;stroke-miterlimit:10;}
</style>
<path class="st0" d="M21.1,8.6l-7.6-6.1c-0.9-0.8-2.3-0.8-3.2,0l0,0L2.9,8.6C2.6,8.8,2.4,9.1,2.4,9.4V21c0,0.6,0.5,1.1,1.1,1.1h5.1
	c0.6,0,1.1-0.5,1.1-1.1v-7.3h4.5V21c0,0.6,0.5,1.1,1.1,1.1h5.1c0.6,0,1.1-0.5,1.1-1.1V9.4C21.6,9.1,21.4,8.8,21.1,8.6z M20.4,21
	h-5.1v-7.3c0-0.6-0.5-1.1-1.1-1.1H9.8c-0.6,0-1.1,0.5-1.1,1.1V21H3.6V9.4l7.6-6.1c0.5-0.4,1.3-0.4,1.8,0l7.6,6.1L20.4,21L20.4,21z
	 M4.6,9.8l7.5-6.3l7.5,6.5v10h-3.5l0.1-7.6l-8-0.1L8.1,20H4.6V9.8z"/>
</svg>
