<svg id="Layer_1" data-name="Layer 1" xmlns="http://www.w3.org/2000/svg" viewBox="0 0 85 85"><defs><style>.cls-1{fill:none;}.cls-2{fill:#e6e6e6;}.cls-3{fill:#1a1a1a;stroke:#1a1a1a;stroke-linecap:round;stroke-linejoin:round;}</style></defs><rect class="cls-1" x="0.22" y="0.1" width="84.89" height="85.06"/><circle class="cls-2" cx="42.73" cy="42.5" r="34.09"/><path class="cls-3" d="M28.62,47.31H27V43.06H22.38v4.25H20.75v-9.8h1.63v4.12H27V37.51h1.63Z"/><path class="cls-3" d="M37.32,38.89H34.5v8.42H32.88V38.89H30.07V37.51h7.25Z"/><path class="cls-3" d="M49.28,47.31H47.67V41c0-.52,0-1.16.09-1.91h0a5.77,5.77,0,0,1-.27.92l-2.93,7.33H43.42L40.49,40a6.77,6.77,0,0,1-.26-1h0q.06.59.06,1.92v6.33H38.75v-9.8H41L43.62,44A8.65,8.65,0,0,1,44,45.16h0c.17-.52.3-.9.41-1.15l2.62-6.5h2.21Z"/><path class="cls-3" d="M57.11,47.31H51.68v-9.8h1.63v8.43h3.8Z"/><path class="cls-3" d="M58.46,47.09V45.56a3.43,3.43,0,0,0,2,.65A2.4,2.4,0,0,0,62,45.7a1.66,1.66,0,0,0,.61-1.35,1.51,1.51,0,0,0-.62-1.3,2.89,2.89,0,0,0-1.77-.47c-.27,0-.8,0-1.61.08L59,37.51h4.83v1.35H60.3l-.16,2.46.85,0a3.4,3.4,0,0,1,2.41.8,2.84,2.84,0,0,1,.85,2.19,3,3,0,0,1-1,2.33,3.83,3.83,0,0,1-2.68.88A4.42,4.42,0,0,1,58.46,47.09Z"/></svg>