<svg xmlns="http://www.w3.org/2000/svg" id="Layer_1" data-name="Layer 1" viewBox="0 0 85 85"><defs><style>.cls-1,.cls-3{fill:none}.cls-2{fill:#ccc}.cls-3,.cls-4{stroke:#1a1a1a;stroke-linecap:round;stroke-linejoin:round;stroke-width:2px}.cls-4{fill:#1a1a1a}</style></defs><rect width="84.89" height="85.06" x=".07" y=".01" class="cls-1"/><circle cx="42.59" cy="42.41" r="34.09" class="cls-2"/><path d="M18.25,47.52A10.75,10.75,0,0,1,17,42.61c0-8.9,11.46-16.11,25.6-16.11s25.59,7.21,25.59,16.11-11.46,16.1-25.59,16.1A38.54,38.54,0,0,1,31.9,57.23" class="cls-3"/><path d="M52.93,38.61,36.42,56.08c-1.58,1.56-3.76,1.83-5,.5a3.94,3.94,0,0,1,.09-5.17l.46-.49L46.31,35.73,48,33.94Z" class="cls-4"/></svg>