<svg id="Layer_1" data-name="Layer 1" xmlns="http://www.w3.org/2000/svg" viewBox="0 0 85 85"><defs><style>.cls-1,.cls-3{fill:none;}.cls-2{fill:#ccc;}.cls-3,.cls-4{stroke:#1a1a1a;stroke-linecap:round;stroke-linejoin:round;stroke-width:2px;}.cls-4{fill:#1a1a1a;}</style></defs><rect class="cls-1" x="0.07" y="0.01" width="84.89" height="85.06"/><circle class="cls-2" cx="42.59" cy="42.41" r="34.09"/><path class="cls-3" d="M18.25,47.52A10.75,10.75,0,0,1,17,42.61c0-8.9,11.46-16.11,25.6-16.11s25.59,7.21,25.59,16.11-11.46,16.1-25.59,16.1A38.54,38.54,0,0,1,31.9,57.23"/><path class="cls-4" d="M52.93,38.61,36.42,56.08c-1.58,1.56-3.76,1.83-5,.5a3.94,3.94,0,0,1,.09-5.17l.46-.49L46.31,35.73,48,33.94Z"/></svg>