<svg id="Layer_1" data-name="Layer 1" xmlns="http://www.w3.org/2000/svg" viewBox="0 0 85 85"><defs><style>.cls-1{fill:none;}.cls-2{fill:#e6e6e6;}.cls-3{fill:#1a1a1a;stroke:#1a1a1a;stroke-linecap:round;stroke-linejoin:round;}</style></defs><rect class="cls-1" x="0.08" y="-0.1" width="84.89" height="85.06"/><circle class="cls-2" cx="42.59" cy="42.3" r="34.09"/><path class="cls-3" d="M33.11,33.88a4,4,0,0,1-.86,2.71,3,3,0,0,1-2.3,1,3.37,3.37,0,0,1-1.1-.16V35.87a1.79,1.79,0,0,0,1,.26c1.09,0,1.63-.84,1.63-2.51v-6h1.63Z"/><path class="cls-3" d="M40.6,37.39H39.06V36.3h0a2.31,2.31,0,0,1-2.12,1.26A2.26,2.26,0,0,1,35.29,37a2,2,0,0,1-.58-1.49q0-2,2.28-2.31l2.08-.29c0-1-.47-1.5-1.42-1.5a3.4,3.4,0,0,0-2.26.86V30.88A5,5,0,0,1,38,30.23a2.32,2.32,0,0,1,2.65,2.61ZM39.07,34l-1.47.21a2.35,2.35,0,0,0-1,.33,1,1,0,0,0-.34.85.93.93,0,0,0,.31.73,1.25,1.25,0,0,0,.85.28,1.55,1.55,0,0,0,1.2-.51,1.78,1.78,0,0,0,.48-1.28Z"/><path class="cls-3" d="M48.52,30.39l-2.71,7H44.1l-2.58-7h1.72l1.55,4.9a4.61,4.61,0,0,1,.22.94h0a5.73,5.73,0,0,1,.19-.92l1.63-4.92Z"/><path class="cls-3" d="M55,37.39H53.46V36.3h0a2.32,2.32,0,0,1-2.13,1.26A2.26,2.26,0,0,1,49.69,37a2,2,0,0,1-.58-1.49q0-2,2.28-2.31l2.08-.29c0-1-.47-1.5-1.42-1.5a3.42,3.42,0,0,0-2.26.86V30.88a5,5,0,0,1,2.56-.65A2.32,2.32,0,0,1,55,32.84ZM53.47,34,52,34.16a2.4,2.4,0,0,0-1,.33,1,1,0,0,0-.34.85.93.93,0,0,0,.31.73,1.25,1.25,0,0,0,.86.28,1.58,1.58,0,0,0,1.2-.51,1.82,1.82,0,0,0,.47-1.28Z"/><path class="cls-3" d="M24.51,53.8V52.13a2.84,2.84,0,0,0,.54.37,3.81,3.81,0,0,0,.66.27,4.23,4.23,0,0,0,.7.18,3.72,3.72,0,0,0,.64.06,2.84,2.84,0,0,0,1.53-.34,1.14,1.14,0,0,0,.5-1,1.09,1.09,0,0,0-.17-.61,1.75,1.75,0,0,0-.47-.47,5,5,0,0,0-.7-.4l-.88-.41q-.49-.27-.93-.54a3.7,3.7,0,0,1-.74-.61,2.42,2.42,0,0,1-.5-.74,2.48,2.48,0,0,1-.18-1,2.23,2.23,0,0,1,.31-1.2,2.53,2.53,0,0,1,.82-.84,3.81,3.81,0,0,1,1.16-.5,5.81,5.81,0,0,1,1.32-.16,5.36,5.36,0,0,1,2.24.35v1.61a3.57,3.57,0,0,0-2.14-.6,3.51,3.51,0,0,0-.72.07,2.17,2.17,0,0,0-.65.22,1.4,1.4,0,0,0-.46.41,1,1,0,0,0-.18.59,1.15,1.15,0,0,0,.14.57,1.63,1.63,0,0,0,.4.44,4.16,4.16,0,0,0,.64.38l.88.41c.34.18.67.36,1,.56a4.28,4.28,0,0,1,.8.65,3,3,0,0,1,.55.79,2.4,2.4,0,0,1,.2,1,2.44,2.44,0,0,1-.3,1.25,2.5,2.5,0,0,1-.81.84,3.55,3.55,0,0,1-1.18.46,6.26,6.26,0,0,1-1.4.15c-.16,0-.36,0-.6,0s-.49-.06-.74-.11-.48-.11-.71-.18A2,2,0,0,1,24.51,53.8Z"/><path class="cls-3" d="M37.54,53.87a3.94,3.94,0,0,1-2,.49,3.37,3.37,0,0,1-2.51-1,3.44,3.44,0,0,1-1-2.52,3.77,3.77,0,0,1,1-2.78,3.68,3.68,0,0,1,2.75-1,4.08,4.08,0,0,1,1.69.33v1.48A2.54,2.54,0,0,0,36,48.29a2.19,2.19,0,0,0-1.65.68,2.54,2.54,0,0,0-.64,1.78,2.35,2.35,0,0,0,.61,1.72,2.13,2.13,0,0,0,1.62.63,2.55,2.55,0,0,0,1.61-.61Z"/><path class="cls-3" d="M43.31,48.7a1.32,1.32,0,0,0-.83-.22,1.4,1.4,0,0,0-1.17.63,2.82,2.82,0,0,0-.47,1.73v3.35H39.25v-7h1.59v1.44h0a2.52,2.52,0,0,1,.72-1.15,1.63,1.63,0,0,1,1.07-.41,1.31,1.31,0,0,1,.66.13Z"/><path class="cls-3" d="M45.38,45.72a.92.92,0,0,1-.66-.25.81.81,0,0,1-.28-.64.83.83,0,0,1,.28-.65.89.89,0,0,1,.66-.26,1,1,0,0,1,.69.26.87.87,0,0,1,0,1.28A1,1,0,0,1,45.38,45.72Zm.79,8.47H44.58v-7h1.59Z"/><path class="cls-3" d="M49.89,53.16h0v4.25H48.27V47.19h1.59v1.23h0A2.59,2.59,0,0,1,52.27,47a2.52,2.52,0,0,1,2.08.93,4,4,0,0,1,.74,2.52,4.35,4.35,0,0,1-.84,2.8,2.79,2.79,0,0,1-2.3,1A2.29,2.29,0,0,1,49.89,53.16Zm0-2.76v.87a1.81,1.81,0,0,0,.49,1.29,1.59,1.59,0,0,0,1.24.54A1.61,1.61,0,0,0,53,52.41a3.18,3.18,0,0,0,.5-1.92A2.45,2.45,0,0,0,53,48.88a1.53,1.53,0,0,0-1.26-.59,1.72,1.72,0,0,0-1.37.6A2.26,2.26,0,0,0,49.85,50.4Z"/><path class="cls-3" d="M60.49,54.12a2.76,2.76,0,0,1-1.22.23c-1.36,0-2-.65-2-2v-4H56.06V47.19h1.17V45.57l1.59-.45v2.07h1.67v1.25H58.82v3.5a1.35,1.35,0,0,0,.23.88.93.93,0,0,0,.75.27,1.08,1.08,0,0,0,.69-.23Z"/></svg>