<svg xmlns="http://www.w3.org/2000/svg" viewBox="0 0 23.76 23.76"><defs><style>.cls-1{fill:none;}.cls-2{fill:#f2f2f2;}.cls-3{fill:#1a1a1a;}</style></defs><g id="messenger"><rect class="cls-1" x="-0.01" y="0.02" width="23.76" height="23.77"/><path class="cls-2" d="M21.78,11.92c0,5.07-4.43,9.18-9.9,9.18a10.43,10.43,0,0,1-3.28-.52l-.46.31-.43.28a4.1,4.1,0,0,1-.86.37l-.07,0-.09,0c-.2-.09-.3-.76-.3-.76l-.12-.87a.71.71,0,0,0,0-.28.53.53,0,0,0,0-.15A9,9,0,0,1,2,11.92c0-5.07,4.44-9.18,9.91-9.18S21.78,6.85,21.78,11.92Z"/><path class="cls-3" d="M17.33,8.77c0,.14-.06.21-.1.33s-.05.19-.09.32-.1.26-.11.28,0,0,0,.07v0c-.2.55-.43,1.13-.43,1.13-.45,1.17-.39,1-.47,1.21-.13.38-.32.93-.62,1.65a1.35,1.35,0,0,1-.55.75.94.94,0,0,1-.59.06l-.06,0,0,0a2.72,2.72,0,0,0-.34-.13L13,14c-.67-.32-1.06-.53-1.6-.8-.39-.2-.94-.47-1.62-.79-.3.36-1,1.19-1.75,1.9l-.82.76-.42.37-.11.11c-.15.12-.18.15-.21.14s0,0,0-.07c0-.18.08-.44.16-.76.11-.48.16-.63.29-1.14s.11-.51.4-1.71c.16-.68.16-.64.21-.87s.11-.48.18-.77.12-.46.16-.59a1.47,1.47,0,0,1,.24-.51A1.5,1.5,0,0,1,8.49,9a1.63,1.63,0,0,1,1.26-.1A19,19,0,0,1,14.22,11c.22-.29.8-1,1.43-1.75.38-.42.66-.69.77-.79l.46-.4c.23-.22.44-.34.52-.28s.05.34,0,.42a1.52,1.52,0,0,0,0,.19l0,.16C17.36,8.64,17.35,8.7,17.33,8.77Z"/></g></svg>