<svg id="Layer_1" data-name="Layer 1" xmlns="http://www.w3.org/2000/svg" viewBox="0 0 85 85"><defs><style>.cls-1,.cls-4{fill:none;}.cls-2{fill:#ccc;}.cls-3{fill:#999;}.cls-4{stroke:#ccc;}.cls-4,.cls-5{stroke-linecap:round;stroke-linejoin:round;stroke-width:2px;}.cls-5{fill:#1a1a1a;stroke:#1a1a1a;}</style></defs><rect class="cls-1" x="0.05" y="0.01" width="84.89" height="85.06"/><circle class="cls-2" cx="42.56" cy="42.59" r="34.09"/><path class="cls-3" d="M59,33.73V45.07L44.66,60.26H31.34A13.2,13.2,0,0,1,18.18,47.09V33.73A13.2,13.2,0,0,1,31.34,20.56H45.86A13.21,13.21,0,0,1,59,33.73Z"/><polyline class="cls-4" points="20.16 53.88 37.39 38.63 41.1 40.48 55.14 24.39"/><ellipse class="cls-2" cx="33.56" cy="31.61" rx="4.15" ry="3.77"/><path class="cls-5" d="M67.19,49.1,50.68,66.57c-1.58,1.56-3.76,1.83-5,.5a3.94,3.94,0,0,1,.09-5.17l.46-.49L60.57,46.22l1.69-1.79Z"/></svg>