<svg xmlns="http://www.w3.org/2000/svg" id="Layer_1" data-name="Layer 1" viewBox="0 0 85 85"><defs><style>.cls-1,.cls-5{fill:none}.cls-2{fill:#ccc}.cls-3{fill:#999}.cls-4,.cls-5{stroke-linecap:round;stroke-linejoin:round;stroke-width:2px}.cls-4{fill:#1a1a1a;stroke:#1a1a1a}.cls-5{stroke:#ccc}</style></defs><rect width="84.89" height="85.06" x="-.07" y=".18" class="cls-1"/><circle cx="42.44" cy="42.59" r="34.09" class="cls-2"/><path d="M61.2,34.09v8.55l-.23.24L46.6,58.07l-.46.49a3.62,3.62,0,0,0-.55.81h-16a12,12,0,0,1-12-12V34.09a12,12,0,0,1,12-12H49.2A12,12,0,0,1,61.2,34.09Z" class="cls-3"/><path d="M69.89,47.3,53.38,64.77c-1.58,1.56-3.76,1.83-5,.5a3.87,3.87,0,0,1-.46-4.36,3.62,3.62,0,0,1,.55-.81l.46-.49L63.27,44.42l.23-.24c.48-.52,1-1,1.46-1.55Z" class="cls-4"/><line x1="22.73" x2="54.73" y1="31.8" y2="31.29" class="cls-5"/><line x1="22.56" x2="54.56" y1="36.22" y2="35.71" class="cls-5"/><line x1="22.73" x2="54.73" y1="40.82" y2="40.31" class="cls-5"/><line x1="22.73" x2="54.73" y1="45.24" y2="44.73" class="cls-5"/><line x1="23.14" x2="51.14" y1="49.49" y2="49.3" class="cls-5"/></svg>