<svg xmlns="http://www.w3.org/2000/svg" id="Layer_1" data-name="Layer 1" viewBox="0 0 85 85"><defs><style>.cls-1{fill:none}.cls-2{fill:#e6e6e6}.cls-3{fill:#1a1a1a;stroke:#1a1a1a;stroke-linecap:round;stroke-linejoin:round}</style></defs><rect width="84.89" height="85.06" x=".01" y="-.12" class="cls-1"/><circle cx="42.52" cy="42.29" r="34.09" class="cls-2"/><path d="M22.15,36.52a15.14,15.14,0,0,1,2.34-.18,3.85,3.85,0,0,1,2.65.79,2.52,2.52,0,0,1,.82,2,2.8,2.8,0,0,1-.72,2,3.92,3.92,0,0,1-2.89,1,4.19,4.19,0,0,1-1-.09v3.78H22.15Zm1.22,4.56a4.15,4.15,0,0,0,1,.09c1.47,0,2.37-.71,2.37-2s-.89-1.85-2.23-1.85a4.88,4.88,0,0,0-1.15.1Z" class="cls-3"/><path d="M30.3,39.07l1.49,4c.15.45.32,1,.43,1.39h0c.13-.41.27-.93.44-1.42l1.34-4h1.3l-1.85,4.84c-.88,2.32-1.48,3.51-2.32,4.24a3.44,3.44,0,0,1-1.51.8l-.31-1a3.3,3.3,0,0,0,1.08-.6,3.82,3.82,0,0,0,1-1.37.86.86,0,0,0,.1-.3,1.3,1.3,0,0,0-.08-.32L29,39.07Z" class="cls-3"/><path d="M38.42,37.13v1.94h1.77V40H38.42v3.66c0,.84.24,1.32.93,1.32a2.73,2.73,0,0,0,.71-.09l.06.93A3.28,3.28,0,0,1,39,46a1.74,1.74,0,0,1-1.33-.51,2.53,2.53,0,0,1-.47-1.77V40h-1v-.94h1V37.45Z" class="cls-3"/><path d="M41.53,35.91h1.23v4.23h0a2.37,2.37,0,0,1,.88-.87,2.57,2.57,0,0,1,1.27-.35c.91,0,2.36.56,2.36,2.9v4H46.07V42c0-1.09-.41-2-1.57-2a1.76,1.76,0,0,0-1.65,1.23,1.53,1.53,0,0,0-.09.59v4.09H41.53Z" class="cls-3"/><path d="M55.48,42.41A3.32,3.32,0,0,1,52.1,46a3.23,3.23,0,0,1-3.25-3.49,3.31,3.31,0,0,1,3.36-3.6A3.21,3.21,0,0,1,55.48,42.41Zm-5.38.07c0,1.48.85,2.6,2.06,2.6s2.06-1.1,2.06-2.63c0-1.15-.58-2.61-2-2.61S50.1,41.19,50.1,42.48Z" class="cls-3"/><path d="M57.08,40.91c0-.7,0-1.28-.06-1.84h1.09l.07,1.12h0a2.5,2.5,0,0,1,2.24-1.27c.94,0,2.4.56,2.4,2.89v4H61.62V42c0-1.1-.41-2-1.57-2a1.76,1.76,0,0,0-1.66,1.26,2,2,0,0,0-.08.58v4.07H57.08Z" class="cls-3"/></svg>