<svg xmlns="http://www.w3.org/2000/svg" xmlns:xlink="http://www.w3.org/1999/xlink" id="Layer_1" x="0" y="0" version="1.1" viewBox="0 0 1440 1440" xml:space="preserve" style="enable-background:new 0 0 1440 1440"><style type="text/css">.st0{fill:none;stroke:#000;stroke-miterlimit:10}.st0,.st1{stroke-width:20}.st1,.st2{stroke:#000;stroke-miterlimit:10}.st1{fill:#fff}.st2{fill:none;stroke-width:25}</style><path d="M1371.21,1338.21c-260.79,16.45-521.59,32.89-782.38,49.34c-59.98,15.08-95.68,4.04-113.96-4.31	C211.21,1262.77,551.02,381.3,257.91,142.5c-91.53-74.57-202.54-35.15-202.63-41.91c-0.13-9.39,215.34-25.89,830.09-54.23	c14.46,0.84,34.26,3.2,56.92,10.14c0,0,36.73,11.25,69.29,34.23c80.3,56.67,104.33,202.01,104.33,202.01	c44.25,267.69-29.89,453.58,32.68,716.94c33.23,139.85,113.71,338.23,196.84,335.8C1356.2,1345.16,1365.08,1341.52,1371.21,1338.21z" class="st0"/><path d="M1475.38,1226.19" class="st1"/><line x1="437.31" x2="1100.52" y1="534.13" y2="497.69" class="st2"/><line x1="425.69" x2="1090.48" y1="460.7" y2="424.17" class="st2"/><line x1="417.89" x2="1081.11" y1="377.92" y2="341.47" class="st2"/><line x1="393.82" x2="1058.61" y1="295.23" y2="258.7" class="st2"/><line x1="426.47" x2="1089.69" y1="818.68" y2="782.24" class="st2"/><line x1="417.1" x2="1081.89" y1="735.84" y2="699.31" class="st2"/><line x1="437.31" x2="1100.52" y1="665.63" y2="629.19" class="st2"/><line x1="417.1" x2="1081.89" y1="595.51" y2="558.98" class="st2"/></svg>